<?xml version="1.0" encoding="utf-8"?>
<!-- Generator: Adobe Illustrator 16.0.0, SVG Export Plug-In . SVG Version: 6.00 Build 0)  -->
<!DOCTYPE svg PUBLIC "-//W3C//DTD SVG 1.1//EN" "http://www.w3.org/Graphics/SVG/1.1/DTD/svg11.dtd">
<svg version="1.1" id="Layer_1" xmlns="http://www.w3.org/2000/svg" xmlns:xlink="http://www.w3.org/1999/xlink" x="0px" y="0px"
	 width="100px" height="100px" viewBox="0 0 100 100" enable-background="new 0 0 100 100" xml:space="preserve">
<g style="fill: #999;">
	<path d="M97.584,65.051l-0.006-0.14c-0.072-1.657-0.48-3.271-1.217-4.812L83.83,33.95c-1.379-2.887-3.441-4.546-5.648-4.546
		c-2.188,0-4.242,1.632-5.637,4.48L59.746,60.105c-0.76,1.558-1.186,3.172-1.254,4.806l-0.006,0.14h-0.033v3.838
		c0,9.234,8.6,16.467,19.58,16.467c10.984,0,19.588-7.231,19.588-16.467v-3.838H97.584z M63.21,64.818
		c0.047-0.133,0.123-0.295,0.231-0.529L77.26,37.017c0.361-0.701,0.711-1.032,0.887-1.043h0.008h0.007
		c0.155,0.009,0.521,0.293,0.896,1.049l13.526,27.188c0.106,0.23,0.183,0.43,0.246,0.594l0.06,0.157l-0.164,0.041
		c-0.143,0.032-0.313,0.048-0.547,0.048H63.82c-0.199,0-0.367-0.012-0.5-0.035l-0.174-0.033L63.21,64.818z"/>
	<path d="M41.498,64.911c-0.072-1.657-0.48-3.271-1.215-4.812L27.751,33.95c-1.376-2.887-3.436-4.546-5.65-4.546
		c-2.187,0-4.243,1.632-5.633,4.48L3.664,60.105c-0.747,1.535-1.179,3.197-1.251,4.806l-0.006,0.14H2.379v3.838
		c0,9.234,8.597,16.467,19.577,16.467c10.981,0,19.585-7.231,19.585-16.467v-3.838h-0.037L41.498,64.911z M7.129,64.818
		c0.047-0.133,0.124-0.295,0.234-0.529L21.18,37.017c0.414-0.81,0.763-1.037,0.891-1.043h0.006h0.006
		c0.155,0.009,0.52,0.293,0.891,1.049l13.527,27.188c0.106,0.23,0.187,0.43,0.25,0.594l0.063,0.157l-0.165,0.041
		c-0.15,0.032-0.315,0.048-0.552,0.048H7.739c-0.198,0-0.36-0.012-0.499-0.035l-0.174-0.029L7.129,64.818z"/>
	<path d="M90.938,22.149v-0.707c0-1.319-1.043-2.395-2.319-2.395H56.379l-0.158-0.336c-1.174-2.509-3.557-4.066-6.221-4.066
		c-2.667,0-5.05,1.558-6.22,4.066l-0.16,0.336H11.378c-1.281,0-2.319,1.075-2.319,2.395v0.706c0,1.322,1.038,2.397,2.319,2.397
		H43.62l0.16,0.336c0.72,1.543,1.935,2.767,3.423,3.445l0.345,0.155v10.135c0,1.395,1.098,2.529,2.452,2.529
		c1.35,0,2.45-1.135,2.45-2.529v-10.13l0.342-0.157c1.492-0.681,2.709-1.904,3.431-3.447l0.151-0.336h32.244
		C89.895,24.546,90.938,23.471,90.938,22.149z"/>
</g>
</svg>
