<?xml version="1.0" encoding="utf-8"?>
<!-- Generator: Adobe Illustrator 16.0.0, SVG Export Plug-In . SVG Version: 6.00 Build 0)  -->
<!DOCTYPE svg PUBLIC "-//W3C//DTD SVG 1.1//EN" "http://www.w3.org/Graphics/SVG/1.1/DTD/svg11.dtd">
<svg version="1.1" id="Layer_1" xmlns="http://www.w3.org/2000/svg" xmlns:xlink="http://www.w3.org/1999/xlink" x="0px" y="0px"
	 width="100px" height="100px" viewBox="0 0 100 100" enable-background="new 0 0 100 100" xml:space="preserve">
<g>
	<path d="M19.773,65.018H15.59V89.93c0,3.246,2.641,5.887,5.886,5.887H69.34c1.572,0,3.051-0.613,4.162-1.725l9.184-9.182
		c1.111-1.113,1.725-2.59,1.725-4.162v-15.73h-4.184v15.209h-5.744c-3.256,0-5.904,2.65-5.904,5.904v5.502H21.477
		c-0.94,0-1.704-0.764-1.704-1.703V65.018z M77.27,84.41l-4.508,4.51v-2.789c0-0.949,0.771-1.721,1.721-1.721H77.27z"/>
	<path d="M80.227,10.07c0-0.94-0.764-1.703-1.703-1.703H21.477c-0.94,0-1.704,0.763-1.704,1.703v13.505H15.59V10.07
		c0-3.245,2.641-5.886,5.886-5.886h57.047c3.244,0,5.887,2.641,5.887,5.886v13.505h-4.184V10.07z"/>
	<path d="M92.49,55.033V32.695c0-3.249-2.645-5.893-5.895-5.893H13.404c-3.25,0-5.894,2.644-5.894,5.893v22.338
		c0,3.25,2.644,5.893,5.894,5.893h73.191C89.846,60.926,92.49,58.283,92.49,55.033z M11.693,32.695c0-0.942,0.768-1.71,1.711-1.71
		h73.191c0.943,0,1.711,0.768,1.711,1.71v22.338c0,0.943-0.768,1.711-1.711,1.711H13.404c-0.944,0-1.711-0.768-1.711-1.711V32.695z"
		/>
	<path d="M43.931,36.21h12.137c1.617,0,2.932,1.315,2.932,2.931c0,1.617-1.314,2.932-2.932,2.932H43.931
		c-1.617,0-2.932-1.315-2.932-2.932C41,37.526,42.314,36.21,43.931,36.21z"/>
	<path d="M33.848,46.625h32.304c1.617,0,2.934,1.316,2.934,2.932s-1.316,2.932-2.934,2.932H33.848c-1.618,0-2.933-1.316-2.933-2.932
		S32.23,46.625,33.848,46.625z"/>
</g>
</svg>
