<?xml version="1.0" encoding="utf-8"?>
<!-- Generator: Adobe Illustrator 16.0.0, SVG Export Plug-In . SVG Version: 6.00 Build 0)  -->
<!DOCTYPE svg PUBLIC "-//W3C//DTD SVG 1.1//EN" "http://www.w3.org/Graphics/SVG/1.1/DTD/svg11.dtd">
<svg version="1.1" id="Layer_1" xmlns="http://www.w3.org/2000/svg" xmlns:xlink="http://www.w3.org/1999/xlink" x="0px" y="0px"
	 width="100px" height="100px" viewBox="0 0 100 100" enable-background="new 0 0 100 100" xml:space="preserve">
<g>
	<path d="M61.792,62.55c-3.73-1.735-7.683-2.599-11.836-2.599c-4.158,0-8.11,0.863-11.848,2.599
		c-3.741,1.736-7.002,4.264-9.771,7.584c-0.833,0.973-1.18,2.156-1.038,3.542c0.135,1.386,0.727,2.529,1.765,3.432
		c1.039,0.893,2.253,1.274,3.637,1.143c1.385-0.141,2.492-0.762,3.326-1.875c1.801-2.079,3.917-3.682,6.34-4.787
		c2.422-1.102,4.955-1.664,7.588-1.664c2.628,0,5.163,0.563,7.584,1.664c2.428,1.104,4.533,2.708,6.34,4.787
		c0.832,1.113,1.946,1.736,3.329,1.875c1.386,0.132,2.589-0.25,3.631-1.143c1.045-0.902,1.627-2.046,1.767-3.432
		c0.142-1.386-0.198-2.567-1.044-3.542C68.794,66.813,65.546,64.286,61.792,62.55z"/>
	<path d="M33.322,46.65c1.807,0,3.361-0.664,4.68-1.977c1.313-1.313,1.972-2.878,1.972-4.676c0-1.794-0.657-3.36-1.972-4.674
		c-1.319-1.313-2.874-1.977-4.68-1.977c-1.8,0-3.354,0.663-4.675,1.977c-1.313,1.314-1.977,2.878-1.977,4.674
		c0,1.797,0.662,3.362,1.977,4.676C29.967,45.988,31.522,46.65,33.322,46.65z"/>
	<path d="M66.578,33.348c-1.796,0-3.361,0.663-4.675,1.977c-1.314,1.314-1.978,2.878-1.978,4.674c0,1.797,0.663,3.362,1.978,4.676
		c1.313,1.314,2.879,1.977,4.675,1.977c1.805,0,3.36-0.664,4.686-1.977c1.304-1.313,1.966-2.878,1.966-4.676
		c0-1.794-0.662-3.359-1.966-4.674C69.938,34.01,68.383,33.348,66.578,33.348z"/>
	<path d="M93.204,24.981C88.713,17.35,82.569,11.209,74.945,6.732c-7.6-4.479-16.006-6.749-24.99-6.749
		c-8.981,0-17.39,2.271-24.992,6.748c-7.627,4.479-13.771,10.619-18.262,18.252C2.224,32.609-0.047,41.021-0.047,49.98
		c0,8.967,2.271,17.371,6.748,24.978c4.48,7.622,10.625,13.768,18.263,18.271c7.631,4.479,16.04,6.75,24.991,6.75
		c8.954,0,17.363-2.271,24.99-6.751c7.635-4.502,13.779-10.647,18.26-18.267c4.479-7.618,6.748-16.023,6.748-24.98
		C99.953,41.031,97.682,32.62,93.204,24.981z M87.243,71.551c-3.87,6.575-9.158,11.863-15.718,15.717
		c-6.598,3.87-13.854,5.833-21.57,5.833c-7.725,0-14.982-1.963-21.569-5.833c-6.563-3.852-11.854-9.14-15.723-15.715
		C8.796,64.958,6.836,57.701,6.836,49.98c0-7.731,1.96-14.988,5.826-21.57c3.857-6.576,9.147-11.868,15.724-15.727
		c6.573-3.862,13.83-5.82,21.568-5.82c7.728,0,14.985,1.958,21.569,5.819c6.573,3.861,11.862,9.153,15.719,15.729
		c3.868,6.586,5.831,13.844,5.831,21.569C93.073,57.695,91.111,64.953,87.243,71.551z"/>
</g>
</svg>
