<?xml version="1.0" standalone="no"?>
<!DOCTYPE svg PUBLIC "-//W3C//DTD SVG 1.1//EN" "http://www.w3.org/Graphics/SVG/1.1/DTD/svg11.dtd">
<svg xmlns="http://www.w3.org/2000/svg">
<metadata>Copyright (C) 2021 by original authors @ fontello.com</metadata>
<defs>
<font id="riode" horiz-adv-x="1000" >
<font-face font-family="riode" font-weight="400" font-stretch="normal" units-per-em="1000" ascent="850" descent="-150" />
<missing-glyph horiz-adv-x="1000" />
<glyph glyph-name="mode-grid" unicode="&#xe80e;" d="M78-89v211h211v-211h-211z m0 317v211h211v-211h-211z m0 316v211h211v-211h-211z m317-633v211h211v-211h-211z m0 317v211h211v-211h-211z m0 316v211h211v-211h-211z m316-633v211h211v-211h-211z m0 317v211h211v-211h-211z m0 316v211h211v-211h-211z" horiz-adv-x="1000" />

<glyph glyph-name="mode-list" unicode="&#xe80f;" d="M70-89v211h211v-211h-211z m0 317v211h211v-211h-211z m0 316v211h211v-211h-211z m330-633v211h514v-211h-514z m0 317v211h514v-211h-514z m0 316v211h514v-211h-514z" horiz-adv-x="984.4" />

<glyph glyph-name="cancel" unicode="&#xe82c;" d="M785 93q0-26-18-45l-90-90q-19-17-45-17t-45 17l-194 196-194-196q-19-17-45-17t-45 17l-90 90q-19 19-19 45t19 45l194 195-194 194q-19 19-19 45t19 45l90 90q19 19 45 19t45-19l194-194 194 194q19 19 45 19t45-19l90-90q18-18 18-45t-18-45l-194-194 194-195q18-17 18-45z" horiz-adv-x="785.2" />

<glyph glyph-name="compare_full" unicode="&#xe8a4;" d="M976 200l0 1c-1 17-5 33-12 48l-126 262c-13 28-34 45-56 45-22 0-43-16-56-45l-128-262c-8-16-12-32-13-48l0-1h0v-39c0-92 86-165 195-165 110 0 196 73 196 165v39h0z m-344 2c1 1 1 3 2 5l139 273c3 7 7 10 9 10h0 0c1 0 5-3 9-10l135-272c1-2 2-4 2-6l1-2-2 0c-1 0-3 0-5 0h-284c-2 0-3 0-5 0l-1 0 0 2z m-217-1c-1 17-5 33-12 48l-125 262c-14 28-35 45-57 45-22 0-42-16-56-45l-128-262c-8-15-12-32-13-48l0-1h0v-39c0-92 86-165 196-165 109 0 195 73 195 165v39h0l0 1z m-344 1c1 1 2 3 3 5l138 273c4 8 7 10 9 10h0 0c1 0 5-3 9-10l135-272c1-2 2-4 3-6l0-2-1 0c-2 0-4 0-6 0h-284c-2 0-3 0-5 0l-1 0 0 2z m838 427v7c0 13-10 24-23 24h-322l-2 3c-11 25-35 41-62 41-27 0-50-16-62-41l-2-3h-322c-13 0-23-11-23-24v-7c0-14 10-24 23-24h322l2-4c7-15 19-27 34-34l4-2v-101c0-14 11-25 24-25 14 0 25 11 25 25v101l3 2c15 7 27 19 34 34l2 4h322c13 0 23 10 23 24z" horiz-adv-x="1000" />

<glyph glyph-name="1" unicode="&#xe900;" d="M812 492h-103c-23 0-47-17-57-37v145c0 39-34 66-73 66h-410c-41 0-71-28-71-66v-77h51v77c0 10 9 15 20 15h410c10 0 21-4 21-15v-439c0-11-11-18-21-18h-153v-51h153c37 0 72 28 72 69v231l11-8c16 28 38 57 47 57h103c48 0 137-127 137-154v-133h-72v-52h81c25 0 42 18 42 42v143c0 47-104 205-188 205z m-663-331v85h-51v-85c0-39 32-69 71-69h31v51h-31c-11 0-20 7-20 18z m612 31c-52 0-95-43-95-96s43-96 95-96c66 0 96 56 96 96 0 53-43 96-96 96z m0-151c-30 0-54 25-54 55s24 55 54 55c31 0 55-25 55-55 0-14-10-55-55-55z m38 359h-67l-19-14v-97l17-15h154l16 14c0 30-50 112-101 112z m-55-95v64h56c23 0 51-41 62-65l-118 1z m-391 146c11 0 20 9 20 20s-9 21-20 21h-177c-11 0-20-9-20-21s9-20 20-20h177z m-255-82h162c12 0 21 9 21 20s-9 21-21 21h-162c-11 0-20-9-20-21 0-11 9-20 20-20z m105-51c0 11-9 20-20 20h-162c-12 0-21-9-21-20s9-21 21-21h162c11 0 20 9 20 21z m109-126c-52 0-95-43-95-96s43-96 95-96c66 0 96 56 96 96 0 53-43 96-96 96z m0-151c-30 0-54 25-54 55s24 55 54 55c31 0 55-25 55-55 0-14-10-55-55-55z" horiz-adv-x="1000" />

<glyph glyph-name="2" unicode="&#xe901;" d="M1000 376c0 251-204 455-455 455-191 0-359-118-426-295-1 0-2 0-3 0-43-7-84-52-104-113-33-103-7-280 174-437l14-11c132-115 253-139 330-139 48 0 94 9 130 26 53 26 91 71 96 111 149 79 244 234 244 403z m-366-462c-16-8-51-21-104-21-67 0-173 22-292 125l-14 12c-211 182-163 356-157 375 14 42 41 71 58 74 23 0 90-53 106-95 9-22 1-43-13-73-13-29-28-62-11-96 19-35 81-88 94-99l14-12c12-11 74-65 111-78 8-3 16-4 24-4v0c26 0 48 14 70 28 23 15 46 29 71 24 46-11 107-73 108-92 0-15-22-47-65-68z m54 171c-28 22-59 39-85 45-8 2-16 3-24 3-38 0-67-19-91-35-14-9-29-19-38-19-2 0-3 1-4 1-20 7-66 44-93 67l-15 13c-27 23-70 64-80 82-4 8 2 22 12 45 14 30 33 71 15 118-8 22-27 47-49 69 42 133 168 226 309 226 179 0 324-145 324-324 1-126-70-237-181-291z m51-56c-6 10-13 19-21 28 116 63 190 183 190 319 0 200-163 363-363 363-155 0-288-96-340-238-10 8-20 14-30 20 60 152 205 252 370 252 219 0 397-178 397-397 0-144-78-277-203-347z m-287 290c17 15 31 30 42 41 10 11 19 24 27 38 7 14 11 29 11 44 0 14-3 27-9 39-7 11-16 21-29 27-12 7-27 10-45 10-15 0-29-3-42-9-12-6-22-14-29-26-8-13-12-33-12-45h47c1 12 4 22 10 29 6 8 15 11 26 11 12 0 20-4 26-10 5-7 8-16 8-28 0-11-4-23-12-34-7-12-17-24-29-35-11-11-27-26-47-43l-27-24v-39h173v37h-104l15 17z m287 193h-59l-114-160v-38h123v-49h50v49h24v37h-24v161z m-50-161h-68l68 110v-110z" horiz-adv-x="1000" />

<glyph glyph-name="3" unicode="&#xe902;" d="M917 407h-271c-46 0-78-34-78-95v-206c0-79 55-81 78-81h107v-30c0-20-17-32-36-32h-622c-19 0-33 12-33 32v686c0 23 22 23 33 23h29v-685c0-16 8-30 24-30s25 13 25 30v685h49v-685c0-16 9-30 25-30s25 13 25 30v685h445c17 0 36-7 36-28v-23c-86-18-136-94-136-185v-24h50v24c0 72 53 130 117 130s117-58 117-130v-24h62v24c0 95-74 173-148 186v22c0 51-45 89-98 89h-622c-55 0-95-34-95-84v-686c0-52 43-94 95-94h622c51 0 98 42 98 94v30h101c51 0 84 30 84 81v206c0 55-36 95-83 95z m21-301c0-7 6-32-22-32h-270c-10 0-16 4-16 32v206c0 2 0 46 16 46h270c15 0 22-24 22-46v-206z m-148 176c-41 0-75-33-75-75 0-41 34-74 75-74s75 33 75 74c0 42-34 75-75 75z m0-111c-20 0-36 16-36 36s16 37 36 37 36-17 36-37-16-36-36-36z" horiz-adv-x="1000" />

<glyph glyph-name="4" unicode="&#xe903;" d="M500 292c-45 0-83-38-83-84s38-83 83-83c46 0 84 37 84 83s-38 84-84 84z m0-125c-25 0-41 16-41 41s16 42 41 42c25 0 42-17 42-42s-17-41-42-41z m253 320v96c0 138-115 250-253 250-137 0-252-112-252-250v-96c-73-66-124-166-124-279 0-208 167-375 376-375 208 0 376 167 376 375 0 113-51 209-123 279z m-457 96c0 117 87 209 204 209s204-92 204-209v-62c-12 8-24 16-36 25v37c0 92-76 167-168 167s-168-75-168-167v-37c-12-9-24-17-36-25v62z m324 0v-21c-36 13-74 21-120 21s-84-8-120-21v21c0 71 49 125 120 125s120-54 120-125z m-120-689c-175 0-314 139-314 314s139 314 314 314c175 0 314-139 314-314s-139-314-314-314z" horiz-adv-x="1000" />

<glyph glyph-name="5" unicode="&#xe904;" d="M486 471c0 68-55 123-123 123-69 0-124-55-124-123 0-69 55-124 124-124 68 0 123 55 123 124z m-183 0c0 33 26 60 60 60 33 0 60-27 60-60s-27-61-60-61c-33 0-60 27-60 61z m334-151c-68 0-123-56-123-124s55-124 123-124c69 0 124 56 124 124s-55 124-124 124z m0-184c-33 0-60 27-60 60s27 60 60 60c34 0 61-27 61-60s-27-60-61-60z m6 408c-15 10-35 6-44-8l-250-370c-4-5-6-11-6-18 0-17 15-31 32-31 11 0 21 5 27 13l249 370c10 15 6 34-8 44z m-143 289c-276 0-500-224-500-500 0-275 224-500 500-500s500 225 500 500c0 276-224 500-500 500z m0-966c-257 0-466 209-466 466s209 466 466 466c257 0 466-209 466-466s-209-466-466-466z m0 914c-247 0-448-201-448-448s201-448 448-448c247 0 448 201 448 448s-201 448-448 448z m0-829c-210 0-381 171-381 381s171 381 381 381c210 0 381-171 381-381s-171-381-381-381z" horiz-adv-x="1000" />

<glyph glyph-name="6" unicode="&#xe905;" d="M982 120l-195 92 193 82c12 5 20 16 20 29s-7 24-18 30l-195 91 193 83c12 5 20 16 20 29 0 12-7 24-18 30l-466 218c-8 4-19 4-27 0l-470-219c-12-5-19-17-19-30 0-12 8-24 20-29l194-83-195-91c-12-5-19-17-19-29 0-13 8-24 20-29l194-83-195-91c-12-6-19-17-19-30s8-24 20-29l465-199c4-2 8-3 13-3 4 0 8 1 12 3l470 199c12 5 20 17 20 29 0 13-7 25-19 30z m-261 360l-223-96-403 173 407 190 403-189-184-78z m-428-64l195-80c3-1 6 1 10 1v0c3 0 6-2 10-1l199 83 198-93-407-174-403 172 198 92z m0-232l195-81c3-2 6 0 10 0v0c3 0 6-2 10 0l199 83 198-93-407-174-403 173 198 92z" horiz-adv-x="1000" />

<glyph glyph-name="7" unicode="&#xe906;" d="M526 162l11 381h-74l11-381z m-26-49c-26 0-45-20-45-48 0-26 18-47 45-47 28 0 45 21 45 47 0 28-17 48-45 48z m488-89l-409 709c-16 28-47 45-79 45s-62-17-79-45l-409-709c-16-28-16-63 0-91s47-45 79-45h818c33 0 63 17 79 45s16 63 0 91z m-922-58c-5 9-5 19 0 27l410 709c5 9 14 14 24 14s19-5 24-14l410-709c5-8 5-18 0-27s-15-12-25-12h-818c-10 0-20 4-25 12z" horiz-adv-x="1000" />

<glyph glyph-name="8" unicode="&#xe907;" d="M509 833c-256 0-457-99-457-226v-548c0-127 200-226 454-226 252 0 442 97 442 225v549c0 131-185 226-439 226z m-385-711c71-64 221-106 387-106 164 0 295 40 380 103v-61c0-75-155-156-380-156-227 0-387 83-387 157v63z m-3 485c0 73 158 156 384 156 221 0 375-83 375-156 0-74-154-156-375-156-226 0-384 82-384 156z m390-530c-227 0-387 83-387 158v64c71-65 221-107 387-107 164 0 295 41 380 104v-63c0-75-155-156-380-156z m0 177c-227 0-387 83-387 157v83c71-64 221-107 387-107 164 0 295 41 380 104v-81c0-76-155-156-380-156z" horiz-adv-x="1000" />

<glyph glyph-name="9" unicode="&#xe908;" d="M748 591c0 12-5 33-37 48-23 10-96 28-178-2l-116 54c42 7 88 6 115-7 8-4 18 0 21 8 4 8 1 17-7 21-44 20-117 19-176-1l-52 24-63-26 58-28c-16-13-25-29-25-45 0-11 5-33 38-48 31-14 106-24 181 3l116-54c-43-8-91-7-119 6-8 4-18 0-21-8-4-8 0-17 8-21 21-10 49-14 79-14 33 0 67 5 98 16l45-21 52 33-40 19c15 13 23 28 23 43z m-409 27c-12 6-19 13-19 19 0 7 7 18 26 30l117-54c-56-12-106-3-124 5z m353-55l-115 53c54 11 102 3 120-6 6-3 19-10 19-19 0-6-7-17-24-28z m-183 270c-256 0-457-99-457-226 0-12 0-548 0-548 0-127 200-226 454-226 252 0 442 97 442 225v549c0 131-185 226-439 226z m-12-756c-227 0-388 83-388 158v64c86-65 222-107 388-107 164 0 323 41 380 104v-63c0-75-155-156-380-156z m380 42v-61c0-75-155-156-380-156-227 0-388 83-388 157v63c86-64 222-106 388-106 164 0 323 40 380 103z m-380 135c-227 0-388 83-388 157v83c86-64 222-107 388-107 164 0 323 41 380 104v-81c0-76-155-156-380-156z m8 197c-226 0-384 82-384 156 0 73 158 156 384 156 221 0 376-83 376-156s-155-156-376-156z" horiz-adv-x="1000" />

<glyph glyph-name="10" unicode="&#xe909;" d="M62 45v393c0 14 9 22 24 22h606c15 0 36-8 36-22v-28h50v28c0 44-41 83-86 83h-606c-44 0-86-39-86-83v-393c0-44 42-79 86-79h186v49h-186c-15 0-24 16-24 30z m210 560c0 74 62 129 117 129 54 0 117-55 117-129v-84h62v84c0 97-83 182-173 182s-173-85-173-182v-84h50v84z m481-413c0-60-40-111-93-111s-92 51-92 111v45h-62v-45c0-91 65-164 148-164 84 0 149 73 149 164v45h-50v-45z m156 169h-505c-47 0-83-36-83-81v-309c0-49 39-92 83-92h505c46 0 91 46 91 92v309c0 48-47 81-91 81z m-526-390v309c0 13 8 19 21 19h505c13 0 29-6 29-19v-309c0-13-16-30-29-30h-505c-13 0-21 17-21 30z" horiz-adv-x="1000" />

<glyph glyph-name="11" unicode="&#xe90a;" d="M482 522h32v-32h-32v32z m0-65h32v-21h-32v21z m0-43h32v-43h-32v43z m512-2l-145 169c-31 46-82 70-137 70h-17l-58 66c-8 9-22 9-32 2l-4-4h-203l-4 6c-10 7-24 4-32-5l-57-65h-17c-55 0-106-24-137-70l-145-171c-9-10-8-24 3-32l192-163c0 0 1-1 2-1 6-5 15-6 22-4l1-247c0-13 10-21 24-21h501c13 0 24 8 24 21v249c2-1 4-2 5-2 7-1 13 1 18 5l193 163c5 4 8 10 9 17 1 6-1 12-6 17z m-377 260l41-44-68-99-62 74 89 69z m-57 22l-60-47-61 47h121z m-178-22l90-69-63-74-68 98 41 45z m403-406l-16 20c-6 7-17 10-26 7s-16-13-16-23v-285h-454v286c0 10-6 18-16 22-9 3-20 0-26-7l-16-19-157 132 131 156c0 1 1 6 2 7 21 32 57 56 97 56h27l80-120c2-4 7-9 12-9 0 0 0-1 1-1 4 0 9 1 12 5l80 94 80-95c3-3 7-6 13-5 4 0 9 7 12 11l79 120h28c40 0 76-24 98-57 0 0 1-3 1-4l132-157-158-134z" horiz-adv-x="1000" />

<glyph glyph-name="12" unicode="&#xe90b;" d="M481 323h38v-38h-38v38z m288 301h-7c-8 38-20 60-36 83-72 110-201 123-227 124-1 0-3 2-3 2s-1 0-1 0c-28-1-154-18-225-126-16-23-27-45-36-83h-9c-71 0-120-44-120-110v-566c0-67 49-115 120-115h544c71 0 127 48 127 115v566c0 66-56 110-127 110z m-79 49c47-82 43-205-14-364-28 32-71 72-126 101 41 37 105 103 128 175 9 30 13 60 12 88z m-192-230c-33 28-102 93-123 158-1 5-3 12-5 20 29 35 76 56 127 56 52 0 99-22 128-58-1-7-3-13-5-18-20-65-89-130-122-158z m-113 285c20 30 59 47 113 51 55-4 93-21 113-51 7-10 12-21 15-34-37 25-82 38-128 38s-91-13-128-37c3 12 8 23 15 33z m-79-55c-1-28 3-58 12-88 23-72 87-138 128-175-55-29-97-69-126-101-56 159-61 282-14 364z m539-727h-5c0-38-31-63-69-63h-550c-37 0-66 27-66 61v573c0 34 28 57 66 57h3c-9-88 12-200 64-330l16-38c1-2 3-3 5-3 0-1 0 0 1 0 2 0 4 1 5 3l23 34c3 4 66 93 160 133 95-41 158-132 159-133l24-34c1-2 3-3 5-3 0 0 0 0 0 0 3 0 5 2 6 4l15 39c52 130 77 241 68 332 37-1 70-28 70-61v-571z m-364 302h38v-38h-38v38z" horiz-adv-x="1000" />

<glyph glyph-name="13" unicode="&#xe90c;" d="M999 205c-1 7-7 39-59 39-24 0-58-7-81-15v48c0 11-4 22-13 28-4 3-10 4-10 6v88c0 85-41 155-112 204-59 41-140 64-224 64-83 0-167-23-226-64-71-49-114-119-114-204v-78c0 0 4 0 4 0-12-6-15-18-15-31v-51c-34 7-56 12-80 12-51 0-69-27-69-50 0-42 43-87 115-119 124-55 253-82 384-82 118 0 183 11 263 32 88 22 169 75 190 92 35 27 52 56 47 81z m-666-36c0 0 0 0 0 0s0 0 0 0v0z m-6-22v0 0 0 0z m170 76v0z m22-43c13 7 19 20 18 33 49 14 135 32 251 50l15 2v-64c-124-51-250-69-371-53 32 9 66 20 87 32z m-215 386c51 35 120 55 195 55 74 0 142-20 194-55 58-40 87-98 87-167v-91c-113-16-234-40-287-61-99 15-190 38-272 69-2 0-5 1-5 2v81c0 69 30 127 88 167z m-119-286c0 0 0 0 0 0s0 0 0 0v0z m9-19v15c11-1 7-2 10-3 79-30 167-52 260-68-36-13-89-27-133-36-45 13-92 32-137 55v37z m730-101c-24-19-99-65-173-84-77-20-139-31-252-31-124 0-247 27-365 79-70 31-88 64-88 77 0 1 7 5 23 5 30 0 74-13 97-20l1 1c0 0-4 0-3-1 45-23 86-42 131-56v-8h28c65-22 131-27 197-27 102 0 206 23 312 65 9 4 16 11 20 20 37 12 67 18 86 18 10 0 14-1 16-2-1-5-7-18-30-36z" horiz-adv-x="1000" />

<glyph glyph-name="14" unicode="&#xe90d;" d="M795 378h-594c-16 0-29-17-29-33s13-33 29-33h594c16 0 29 17 29 33s-13 33-29 33z m158 159c-29 27-69 41-110 41h-16c-11 40-44 68-84 74-35 100-134 169-247 169-114 0-215-71-248-173-33-10-59-43-68-70h-27c-86 0-153-63-153-144v-440c0-81 67-149 153-149h690c86 0 157 68 157 149v440c0 39-17 75-47 103z m-223 73c23 0 42-18 52-32h-105c10 14 30 32 53 32z m-234 153c84 0 159-50 188-121-25-13-44-37-52-64h-258c-9 27-33 58-64 69 31 69 104 116 186 116z m-219-153c23 0 43-18 53-32h-106c10 14 30 32 53 32z m670-618c0-47-60-80-113-80h-683c-53 0-98 33-98 80v435c0 48 45 85 98 85h683c26 0 59-8 77-25s36-37 36-60v-435z m-136 306h-626c-5 0-10-8-10-13s5-13 10-13h626c6 0 10 8 10 13s-4 13-10 13z" horiz-adv-x="1000" />

<glyph glyph-name="15" unicode="&#xe90e;" d="M999-1l-81 547c-8 51-53 89-105 89h-63c-45 94-144 153-254 153-111 0-209-59-254-153h-55c-4 0-8 1-11 0-48-5-86-41-93-89l-82-547c-4-31 5-61 25-84 20-24 49-37 80-37h788c31 0 60 13 80 37 20 23 29 53 25 84z m-424 262v-22c0-16-24-23-40-23h-68c-16 0-40 7-40 23v31h148v10-19z m26 41c-4 12-15 22-28 22h-144c-13 0-24-13-28-27h-8c-60 0-182 63-182 142v142h62l8-2c0 0 0 2 1 2h429c0 0 0 0 0 0h67v-142c0-78-116-135-177-137z m-105 428c77 0 147-28 187-95h-374c40 67 110 95 187 95z m434-779c-9-11-22-18-36-18h-788c-14 0-27 7-36 18-9 10-13 25-11 39l79 548c3 19 5 34 32 39v-138c0-104 146-182 223-182h7v-18c0-37 30-63 67-63h68c37 0 67 26 67 63v22c68 3 216 76 216 178v140c14-3 39-19 43-41l81-548c2-14-3-29-12-39z" horiz-adv-x="1000" />

<glyph glyph-name="16" unicode="&#xe90f;" d="M878 173c-8 51-27 102-45 151-7 18-13 35-19 53-15 244-130 382-131 383l-11 9-5 3c-14 7-51 23-84 23-7 0-14-2-20-6l-1 9-4 12-5 4c-3 4-6 7-10 11l-10 8h-72l-15-2-7-6c-4-4-7-7-11-11l-6-7-3-19c-5 3-10 6-16 7-7 2-14 2-21 2-45 0-80-31-84-35l-3-4c-74-81-117-207-123-353-24-62-56-172-66-231-24-134-6-233 52-303 6-7 13-9 22-17l29-21h566l32 22c7 7 13 11 19 18 59 70 76 167 52 300z m-334 532c13 0 21 10 33 22 3 3 9 10 12 13 17-2 38-9 53-16l2-1c11-14 90-122 112-304-19 49-41 95-64 134-9 17-29 46-47 70v1l-6 5c-32 39-65 63-98 76h3z m171-554c-31 19-67 28-103 28h-240c-37 0-74-10-106-31-19 66-28 132-27 196 20 61 43 119 70 169 2 4 5 9 5 13v-13h7v-73c0-61 50-107 110-107h123c61 0 106 56 106 116v76c25-48 55-105 76-166 3-68-2-138-21-208z m-94 366c-12-17-65-34-133-34-72 0-123 20-136 38v-1 31h269v-34z m-125-61c50 0 100 10 138 29v-36c0-41-39-77-80-77h-123c-41 0-74 35-74 76l1 36c33-19 87-28 138-28z m-134 146c7 0 11 11 11 11 41 49 81 73 116 73l4-1 2-1c36 0 76-26 116-75 0 0 0 4 1 3 3-5 6-10 10-10h-260z m100 116l10 64h38l10-64 4-2c-10 3-20 4-29 4h-6c-11 0-21-1-32-5l5 3z m-127 4l1 2c4 3 28 23 53 19 3-3 10-9 14-13 13-13 21-21 34-21h5c-32-13-65-39-97-78-2-2-44-58-66-102-19-35-36-74-52-115 6 129 44 238 108 308z m-170-557c6 41 23 112 41 169 0-69 10-140 31-210-7-7-13-19-23-33-22-32-29-70-29-109v-37c-38 54-37 127-20 220z m591-293h-528l-12 14c-2 2-5 7-5 8v88c0 32 9 63 26 89 15 19 31 35 31 35v5c30 24 66 43 104 43h240c36 0 72-18 101-40l-2-5c9-8 25-25 30-33l18 11-21-11c20-28 24-60 24-94v-88c0-1 4-5 3-7l-9-15z m58 72v38c0 41-15 80-38 114l1 1c-7 11-22 25-31 34 19 64 29 129 30 192 2-6 4-12 7-18 17-47 37-95 44-141 17-93 12-165-13-220z m-205 82h-26v-13h-269v-26h269v-13h26v13h64v26h-64z m-116 492h25v-24h-25v24z" horiz-adv-x="984.4" />

<glyph glyph-name="17" unicode="&#xe910;" d="M998 152v288h2c0 0-2 1-2 2v8h1c-7 42-41 70-82 70-21 0-40-7-56-21-2-1-3-3-5-5-16-22-60-69-146-69-1 0-2 1-3 1 9 12 14 25 15 39 4 56-56 101-63 105-8 6-19 7-28 2l-109-60-479-252c-2-1-5-2-7-4-23-18-36-43-36-72 0-53 43-93 95-93h824c30 0 51 6 65 22 15 16 14 33 14 39z m-53 66h-304c5 21 19 53 55 53h249v-53z m-304 299c14-13 29-32 28-48-1-13-14-24-28-32-32 12-54 30-67 44l67 36z m305-369c-2-2-8-4-27-4h-824c-23 0-42 16-42 40 0 12 5 22 14 30l191 100 61-83 25 19-58 78 55 29 62-83 25 19-59 79 55 29 62-83 25 18-59 80 74 39c25-30 82-82 184-82 110 0 168 61 189 90 5 4 10 6 17 6 16 0 29-13 29-28v-139h-250c-65 0-87-61-89-93 0-4 1-12 4-15s7-8 12-8h323v-35c0-1 1 0 1-2 0 1 1 0 0-1z m-413 70h32v-32h-32v32z m-63 0h32v-32h-32v32z" horiz-adv-x="1000" />

<glyph glyph-name="18" unicode="&#xe911;" d="M474 249h45v-59h-45v59z m0 104h45v-45h-45v45z m0 89h45v-45h-45v45z m496-109c0 45 6 119 13 198 8 94 17 191 17 262 0 22-18 40-40 40-62 0-157-8-250-16-84-7-164-14-210-14-45 0-119 6-198 13-94 9-191 17-262 17-22 0-40-18-40-40 0-62 8-157 16-249 7-85 14-164 14-211 0-45-6-119-13-197-8-94-17-192-17-263 0-22 18-40 40-40 62 0 157 8 250 16 84 8 164 15 210 15 45 0 119-7 198-14 94-8 191-17 262-17 22 0 40 18 40 40 0 62-8 157-16 250-7 84-14 164-14 210z m-265-404c-81 7-157 14-205 14-50 0-131-7-217-15-72-6-146-12-203-14 3 62 9 144 16 219 6 64 11 116 13 175h173v45h-172c-1 15-2 29-3 44h71v45h-74c-3 29-5 70-9 105-6 72-12 148-14 204 62-2 139-8 215-15 80-7 156-13 204-13 50 0 131 7 217 15 72 6 146 12 203 15-2-63-9-144-16-219-3-31-5-63-8-92h-170v-45h167c-1-15-2-29-2-44h-76v-45h76c2-59 8-119 14-188 6-72 12-148 15-204-63 2-140 6-215 13z" horiz-adv-x="1000" />

<glyph glyph-name="19" unicode="&#xe912;" d="M878-34l-187 494 1 10c4 23 9 44 11 67 5 48 2 87-11 124 0 2-1 4-2 6 13 35 42 118 34 155l-2 11-38-7 3-12c4-23-19-96-37-143-1-1-1-1-2-2-13-16-30-29-49-42-16-12-32-24-46-38-12-12-23-25-33-39-8-10-16-22-23-33-7 11-14 23-22 33-10 14-21 27-33 39-14 14-31 26-46 38-19 13-36 26-49 42-1 1-1 1-1 1l2 6-4-2c-19 48-40 118-36 140l3 12-38 7-3-11c-7-37 22-121 35-155-1-2-2-4-2-6-13-37-17-76-11-124 2-24 7-48 11-72l3-12c0 0 0-1 0-1l-184-486c-5-13-1-28 11-35 99-58 209-90 326-97 14-1 27-1 41-1 130 0 257 34 367 97v1c12 7 16 22 11 35z m-507 227v0c0 8-13 12-14 3 0 0 0-1 0-1h-1l-40-299c-18 5-36 10-54 17l149 545c24 2 53 10 86 10h3c32 0 63-7 89-10l149-542c-17-7-35-14-53-18l-41 298v-1c0 1 0 1 0 1-2 9-14 6-14-3h-1l41-301c-55-13-112-20-170-20-13 0-26 0-39 1-45 2-88 9-130 19l40 301z m291 435c6-26 6-54 3-87-2-18-5-35-9-54-34 10-87 14-122 15 5 8 11 17 17 25 9 12 19 24 29 34 13 13 28 24 42 35 14 10 27 20 40 32z m-319-189c8 4 26 8 52 12l-147-533c-30 12-59 25-87 41l182 480z m313 1c0 0 1 0 1-1l182-480c-28-16-57-29-87-41l-147 533c23-3 41-7 51-11z m-239 59c-25-2-57-6-78-14-4 19-7 38-9 56-3 33-3 61 3 87 13-12 27-22 40-32 14-11 29-22 42-34 10-11 20-22 29-35 6-8 12-16 17-25-15-1-30-2-44-3z" horiz-adv-x="1000" />

<glyph glyph-name="20" unicode="&#xe913;" d="M985 399l-13 32c-2 6-6 9-10 11v293h-51v-268c-1 0-2-1-2-1-8-2-11-5-24-7v186c0 26-32 26-32 0h-6v-196c-39-16-105-39-156-75-57-38-95-90-133-141l-15-18c-9-12-16-24-29-36 0 38 0 82 0 108s-26 25-26 0 0-71 0-109c-13 16-26 32-38 47l-3 3c-40 52-79 106-137 146-49 33-116 56-155 72v199h-6c0 26-32 26-32 0v0-189c-13 5-33 9-46 12-2 0-3 1-5 1v266h-52v-299c0-3 1-6 3-9l-2-28c-14-94-29-201 10-303 28-71 81-127 145-151 23-9 49-13 74-13 52 0 103 17 144 50 0 1 22 23 47 49h132c24-26 47-48 47-49 40-33 91-51 143-51 26 0 51 5 74 14 64 24 116 79 144 151 39 100 24 203 10 303z m-405-289c-7 9-13 18-16 24h16v-24z m-144 24c-2-4-5-9-9-15v15h9z m-83-106c-30-24-69-38-107-38-19 0-37 4-54 10-48 18-88 61-110 118-33 83-20 171-7 263l4 22c78-20 139-45 185-77 53-36 94-83 131-132 6-8 13-22 20-22h-16v-98c-26-18-34-36-46-46z m109 41c18 13 32 38 36 64h6c3-26 18-51 36-64h-78z m459 49c-22-57-63-100-111-118-16-6-34-10-53-10-38 0-74 14-104 38-10 9-24 24-37 40v104h-33c7 0 14 15 20 23 5 6 9 11 14 17 33 44 64 84 108 114 52 36 113 62 186 80v-17h15l1-8c13-92 26-180-6-263z" horiz-adv-x="1000" />

<glyph glyph-name="21" unicode="&#xe914;" d="M499 213c-28 0-51-23-51-52 0-28 23-52 51-52 29 0 52 24 52 52 0 29-23 52-52 52z m0-67c-8 0-14 7-14 15s6 15 14 15c9 0 15-7 15-15s-7-15-15-15z m371 606h-742c-68 0-128-53-128-121v-463c0-69 60-119 128-119h210v-67h-108v-68h527v68h-95v67h208c69 0 130 50 130 119v463c0 68-61 121-130 121z m-742-54h742c39 0 76-29 76-67v-365h-892v365c0 38 36 67 74 67z m480-716h-216v67h216v-67z m262 121h-742c-38 0-74 27-74 65v57h892v-57c0-38-37-65-76-65z" horiz-adv-x="1000" />

<glyph glyph-name="22" unicode="&#xe915;" d="M153 545h718v-353h-236v-23h244c10 0 27 1 27 10v394c0 9-17 7-27 7h-734c-9 0-39 2-39-7v-394c0-9 30-10 39-10h232v23h-224v353z m822-400h-10v475c0 26-16 43-42 43h-822c-26 0-54-17-54-43v-475h-11c-13 0-36-11-36-24v-53c0-44 45-64 108-64h795c63 0 97 20 97 64v53c0 13-12 24-25 24z m-881 473l824 2v-475h-279c-13 0-23-6-23-19 0-5-4-5-9-5h-190c-5 0-9 0-9 5 0 13-10 19-23 19h-291v473z m809-567h-795c-49 0-61 10-61 17v30h321c8-12 27-35 49-35h190c22 0 41 23 50 35h284v-30c0-7 11-17-38-17z m-404 141h24v-23h-24v23z" horiz-adv-x="1000" />

<glyph glyph-name="23" unicode="&#xe916;" d="M999 101l-60 381c-19 119-120 204-240 204h-398c-120 0-221-85-240-204l-60-381c0-4-1-8-1-12-1-26 7-51 25-71 19-24 50-38 80-38 27 0 53 11 73 31v0 1l147 147h350l147-147c20-20 46-31 73-31 31 0 61 14 81 37 19 23 28 53 23 83z m-108 356c3-25 2-47-4-68-10-35-31-61-66-85-30-19-65-28-102-28h-354l-68-71-155-157c-13-13-27-16-37-16s-20 3-28 8c-1 0-2 1-3 2-1 0-1 0-2 1-3 2-6 5-9 8-7 8-14 22-11 42l60 383c14 94 94 163 190 163h397c18 0 35-3 51-7 72-20 127-80 139-156v-1l2-18z m46-406c-11-12-26-19-42-19-10 0-24 1-37 14l-161 160h-323l13 12h332c47 0 92 15 130 40 27 18 48 40 63 64l36-229c4-20-4-34-11-42z m-308 436c-15 0-28-12-28-28s13-29 28-29c16 0 29 13 29 29s-13 28-29 28z m-3-28c0 2 2 3 3 3s4-1 4-3c0-4-7-4-7 0z m138 28c-16 0-29-12-29-28s13-29 29-29c15 0 28 13 28 29s-13 28-28 28z m-4-28c0 2 2 3 4 3s3-1 3-3c0-4-7-4-7 0z m-63 101c-16 0-29-12-29-28s13-29 29-29 28 13 28 29c0 16-13 28-28 28z m-4-28c0 2 2 3 4 3s3-1 3-3c0-4-7-4-7 0z m4-118c-16 0-29-12-29-28s13-29 29-29 28 13 28 29c0 16-13 28-28 28z m-4-28c0 2 2 3 4 3s3-1 3-3c0-4-7-4-7 0z m-318 101h-62v55c0 14-9 26-23 26s-24-12-24-26v-55h-58c-14 0-26-15-26-29s12-30 26-30h58v-53c0-14 10-25 24-25s23 11 23 25v53h62c14 0 25 16 25 30s-11 29-25 29z" horiz-adv-x="1000" />

<glyph glyph-name="24" unicode="&#xe917;" d="M958 263h-289v322c0 14-10 26-25 26-14 0-24-12-24-26v-322h-608c-15 0-12-18-12-32v-247c0-15-3-24 12-24h86v-37h60v37h693v-37h61v37h46c15 0 26 9 26 24v247c0 14-11 32-26 32z m-34-243h-863v183h572c1 0 1 0 1 0s1 0 1 0h289v-183z m-268 146h25v-48h-25v48z m85 0h49v-48h-49v48z m73 0h61v-48h-61v48z m-158-61h25v-60h-25v60z m85 0h49v-60h-49v60z m73 0h61v-60h-61v60z m-631 37h48v-37h-48v37z m72 0h49v-37h-49v37z m86 0h48v-37h-48v37z m151 363c4-4 9-6 14-6s10 2 14 6c7 7 7 20 0 28-31 31-31 81 0 112 7 8 7 20 0 28-8 7-20 7-28 0-46-47-46-122 0-168z m262 0c4-4 9-6 14-6s10 2 14 6c46 46 46 121 0 168-7 7-20 7-27 0-8-8-8-20 0-28 31-31 31-81 0-112-8-8-8-21-1-28z m-327-65c4-4 9-6 14-6s10 2 14 6c8 8 8 20 0 28-32 32-50 75-50 121 0 45 18 88 50 121 8 7 8 20 0 27-8 8-20 8-28 0-39-39-61-92-61-148s22-109 61-149z m442 149c0-46-17-89-50-121-7-8-7-20 0-28 4-4 9-6 14-6s10 2 14 6c40 40 62 93 62 149s-22 109-62 148c-8 8-20 8-28 0-7-7-7-20 0-27 33-33 50-76 50-121z" horiz-adv-x="984.4" />

<glyph glyph-name="25" unicode="&#xe918;" d="M500 660c-39 0-70-32-70-71s31-70 70-70 71 31 71 70c0 39-32 71-71 71z m0-106c-19 0-35 16-35 35s16 35 35 35 35-16 35-35c0-19-16-35-35-35z m173 166h-346c-7 0-14-7-16-14-1-2-21-56-21-116 0-61 20-113 21-115 3-6 9-13 16-13h346c7 0 14 6 16 12 1 3 21 53 21 114 0 60-20 115-21 118-2 6-9 14-16 14z m-13-221h-320c-6 12-14 53-14 91s9 69 14 94h320c6-25 15-56 15-94 0-37-9-79-15-91z m305 274c-4 11-15 9-22 9h-886c-7 0-18 2-22-9-4-9-35-91-35-189 0-100 34-181 35-184 4-9 12-12 22-12h217v-90c0-13 20-32 33-32h20c-19 0-23-12-23-19l-31-331c0-6 2-16 6-21 5-5 11-11 18-11h406c7 0 13 6 17 11l1 1c5 5 6 14 6 20l-31 331c-1 11-10 18-23 18h27c4 0 12 2 15 14 1 7 2 13 2 19v90h226c9 0 18 4 22 13s35 87 35 185c0 97-31 178-35 187z m-761-348c-8 25-28 86-28 158 0 73 20 150 28 162h592c8-12 28-89 28-162 0-72-19-133-28-158h-592z m416-233c10 0 11 12 11 22v15h25l28-296h-368l28 296h29v-15c0-10 9-22 19-22h228z m-210 37v20c0 0 0 0 0 0v66h184v-66c0 0 0 0 0 0v-20h-184z m270 86h-49v15c0 10-1 22-11 22h-228c-10 0-19-12-19-22v-15h-49v73h356v-73z m-638 268c0 73 19 150 28 162h97c-10-25-26-92-26-162 0-68 15-133 26-158h-98c-8 25-27 86-27 158z m792-158c10 25 25 90 25 158 0 70-16 137-26 162h98c8-12 28-88 28-162 0-72-20-133-28-158h-97z" horiz-adv-x="1000" />

<glyph glyph-name="26" unicode="&#xe919;" d="M866 481v94h-42v-94h-64c-52 0-69 17-93 41-29 29-63 63-166 63-102 0-136-34-165-63-23-24-40-41-93-41h-69v94h-42v-94h-52v-115h60l50-53h94l-47-85v-201c0-11 10-19 21-19s21 8 21 19v192l46 90 28-57c14-27 41-43 72-43h53v-11c-42-9-73-47-73-92 0-52 43-95 95-95s95 43 95 95c0 45-33 83-75 92v11h58c31 0 58 16 71 43l27 57 43-87v-195c0-11 10-19 21-19s21 8 21 19v205l-42 81h93l50 53h67v115h-63z m-365-445c-38 0-69 31-69 70s31 69 69 69 70-31 70-69-31-70-70-70z m77 214h-153c-16 0-30 9-37 23l-30 61h286l-30-61c-7-14-20-23-36-23z m141 105v0h-513l-50 42h-45v42h132c70 0 96 28 121 54 25 25 51 52 137 52 87 0 113-28 139-53 25-25 52-53 120-53h127v-42h-40l-50-42h-78z m110 304h29v-30h-29v30z m158-59c-5 1-10 2-16 3-3 0-6 1-9 1-4 1-7 0-11 0-29 0-68 0-108 0-39 0-78 0-107 0-4 0-8 1-11 0-3 0-6-1-9-1-6-1-12-2-16-3-8-2-13-3-13-3s5-1 13-2c4-1 10-2 16-3 3-1 6-1 9-2 3 0 7 0 11 0 29 0 68 0 107 0 40 0 79 0 108 0 4 0 7 0 11 0 3 1 6 1 9 2 6 1 11 2 16 2 8 2 13 3 13 3s-5 1-13 3z m-845 59h29v-30h-29v30z m122-69c4 0 8 0 11 0 3 1 6 1 9 2 6 1 12 2 16 3 8 1 13 2 13 2s-5 1-13 3c-4 1-10 2-16 3-3 0-6 1-9 1-3 1-7 0-11 0-29 0-68 0-107 0s-79 0-108 0c-4 0-7 1-11 0-3 0-6-1-9-1-6-1-11-2-15-3-9-2-14-3-14-3s5-1 14-2c4-1 9-2 15-3 3-1 6-1 9-2 4 0 7 0 11 0 29 0 69 0 108 0s78 0 107 0z m254-484c0-10-7-18-17-18s-17 8-17 18c0 9 8 17 17 17v14c-17 0-31-14-31-31 0-18 14-32 31-32 18 0 32 14 32 32h-15z" horiz-adv-x="1000" />

<glyph glyph-name="27" unicode="&#xe91a;" d="M194-61c-48 0-88 39-88 87s40 88 85 88v17c-45 0-102-47-102-104s47-105 104-105c57 0 104 42 104 101h-16c0-44-39-84-87-84z m0 806c-57 0-105-48-105-105s57-104 102-104v17c-45 0-85 39-85 87s41 88 89 88c47 0 86-40 86-85h16c0 59-46 102-103 102z m617-614v-17c44 0 84-39 84-87s-40-88-88-88c-47 0-87 40-87 84h-17c0-59 46-101 103-101s106 47 106 104-42 105-101 105z m-5 597c48 0 89-40 89-88s-40-87-84-87v-17c59 0 101 46 101 103s-48 106-105 106c-57 0-104-43-104-102h17c0 45 38 85 86 85z m0-507c-36 0-71-10-102-29-35 54-53 101-53 141s18 88 53 141c31-19 66-29 102-29 107 0 194 87 194 194s-87 194-194 194c-107 0-194-87-194-194 0-36 10-71 29-102-53-35-102-53-141-53s-88 18-141 53c19 31 29 66 29 102 0 107-87 194-194 194s-194-87-194-194c0-107 87-194 194-194 36 0 71 10 102 29 35-53 53-101 53-141s-18-87-53-141c-31 19-66 29-102 29-107 0-194-87-194-194s87-194 194-194 194 87 194 194c0 37-10 71-29 102 54 36 101 54 141 54s88-18 141-54c-19-30-29-65-29-102 0-107 87-194 194-194s194 87 194 194c0 107-87 194-194 194z m0 564c80 0 146-66 146-146s-66-145-146-145c-32 0-62 10-86 28 14 18 27 33 38 46 37 33 60 59 61 60 6 7 5 17-1 23s-16 7-23 1c-1-1-27-24-61-60-12-12-28-25-45-39-18 24-28 54-28 86 0 80 65 146 145 146z m-495-232c-17 14-33 27-45 38-33 37-60 60-61 61-6 6-17 5-23-1s-6-16-1-23c1-1 24-27 61-60 11-13 24-29 38-46-24-18-54-28-86-28-80 0-145 65-145 145s65 146 145 146c80 0 146-66 146-146 0-32-11-62-29-86z m-117-671c-80 0-145 65-145 145 0 81 65 146 145 146 32 0 62-11 86-29-13-17-27-33-38-45-37-33-60-60-61-61-5-6-5-16 1-23 3-3 8-5 12-5s8 2 11 5c1 1 28 23 61 60 12 11 28 25 45 38 18-24 29-54 29-86 0-80-66-145-146-145z m306 349c-52 0-106-22-155-53 30 49 53 103 53 155s-23 106-53 155c49-30 103-53 155-53s106 23 155 53c-30-49-53-103-53-155s23-106 53-155c-49 31-103 53-155 53z m306-349c-80 0-145 65-145 145 0 32 10 62 28 86 17-13 33-27 46-38 33-36 59-59 60-60 7-6 17-6 23 0 6 7 7 17 1 23-1 1-24 28-61 61-11 13-24 28-38 46 24 17 54 28 86 28 80 0 146-65 146-146 0-80-66-145-146-145z" horiz-adv-x="1000" />

<glyph glyph-name="28" unicode="&#xe91b;" d="M410 666c-15 14-23 33-23 54 0 20 8 39 23 53l-13 12c-17-17-27-41-27-65s10-49 27-66l13 12z m-42-42c-52 53-52 138 0 191l-12 12c-59-59-59-155 0-215l12 12z m248 30c36 36 36 95 0 131l-12-12c29-29 29-77 0-107l12-12z m41-42c29 29 45 67 45 108 0 40-16 78-45 107l-12-12c26-26 40-59 40-95s-14-70-40-96l12-12z m60-305c-91 0-165-74-165-165s74-165 165-165c91 0 165 74 165 165s-74 165-165 165z m0-296c-72 0-131 59-131 131s59 131 131 131c72 0 131-59 131-131s-59-131-131-131z m-421 296c-91 0-165-74-165-165s74-165 165-165c91 0 165 74 165 165s-74 165-165 165z m0-296c-72 0-131 59-131 131s59 131 131 131c73 0 131-59 131-131s-58-131-131-131z m62 142h-59v50c0 5-3 9-8 9s-7-4-7-9v-50h-49c-5 0-9-3-9-7 0-5 4-8 9-8h49v-58c0-4 2-8 7-8s8 4 8 8v58h59c5 0 9 3 9 8 0 4-4 7-9 7z m359 38c-27 0-49-22-49-49s22-49 49-49c27 0 49 22 49 49s-22 49-49 49z m0-81c-18 0-32 14-32 32s14 32 32 32c17 0 32-15 32-32 0-18-15-32-32-32z m198 327h-62c-4 74-61 134-129 134h-187v-60h187c42 0 78-30 82-74h-207c-9 30-32 53-62 62v144c30 13 52 43 52 77 0 45-37 83-83 83s-89-38-89-83c0-34 16-64 46-77v-72h-173c-69 0-126-60-129-134h-63c-53 0-98-40-98-93v-406c0-53 45-98 98-98h817c53 0 85 45 85 98v406c0 53-32 93-85 93z m-408 317c18 0 34-16 34-34 0-19-16-35-34-35s-35 16-35 35c0 18 16 34 35 34z m-217-243h173v-12c-30-9-40-32-49-62h-206c3 44 39 74 82 74z m665-573c0-26-14-39-40-39h-817c-26 0-53 13-53 39v405c0 27 27 49 53 49h343c9 0 17 7 17 17 0 32 24 46 49 46 24 0 48-14 48-46 0-10 8-17 17-17h343c26 0 40-22 40-49v-405z" horiz-adv-x="1000" />

<glyph glyph-name="29" unicode="&#xe91c;" d="M240 763v14h99v-14h28v70h-155v-70h14z m89-143l-178-293h112l-16-217 177 316h-112l17 194z m65-208l-123-222 11 151h-100l123 204-12-133h101z m387-282h-77v147c0 5-2 9-7 9s-7-4-7-9v-159c0-5-4-2 0-2h92c4 0 8 3 8 7s-4 7-9 7z m-88 267c-52 0-115-15-143-42v408h-520v-858h467c52-42 121-72 193-72 154 0 280 128 280 282s-123 282-277 282z m-3-507c-125 0-228 102-228 228s103 229 228 229c126 0 229-103 229-229s-103-228-229-228z m-618 831h421v-428c-42-47-66-104-66-171 0-56 17-118 47-146h-402v745z" horiz-adv-x="1000" />

<glyph glyph-name="30" unicode="&#xe91d;" d="M807 586h-54v191c0 33-20 56-53 56h-17c-16 0-31-4-42-16-12-11-18-24-18-40v-191h-246v191c0 16-7 29-18 40-12 12-27 16-43 16h-17c-33 0-65-23-65-56v-191h-42c-41 0-75-27-75-68v-7c0-32 26-59 52-69v-156c0-149 104-274 247-303v-150h39v144c0 0 13-1 21-1h47c8 0 10 1 23 1v-144h38v150c143 29 247 154 247 303v156c26 10 52 37 52 69v7c0 41-35 68-76 68z m-145 191c0 6 2 9 6 13s9 4 15 4h17c11 0 14-6 14-17v-191h-52v191z m-389 0c0 11 15 17 26 17h17c6 0 11 0 15-4s7-7 7-13v-191h-65v191z m545-266c0-5-6-15-11-15h-41v-210c0-135-108-245-243-245h-47c-135 0-242 110-242 245v145h247v65h-289c-5 0-10 10-10 15v7c0 5 5 4 10 4h615c5 0 11 1 11-4v-7z" horiz-adv-x="1000" />

<glyph glyph-name="31" unicode="&#xe91e;" d="M954 502c-13 15-32 24-50 32-19 9-42 11-63 11h-129c-7 12-15 25-24 35-14 15-31 26-50 34-20 9-42 13-64 13h-405c-21 0-43-3-63-11-28-13-58-33-75-59s-31-56-31-87v-277c0-42 21-82 50-112 15-15 34-24 53-32 20-8 45-10 66-10h405c22 0 44 1 64 10 28 13 52 36 69 62 2 2 3 10 5 10h129c21 0 42 1 61 10 27 12 54 30 69 55 16 25 29 53 29 83v126c0 40-19 78-46 107z m-295-309c0-58-39-95-90-95h-397c-53 0-101 40-101 95v277c0 55 48 99 101 99h397c51 0 90-41 90-99v-277z m185-24h-128c0 23-1 68-1 106 0 14 0 35-1 46h216v-56c0-52-38-96-86-96z m85 176h-215c0 24 0 38 0 58 0 33 0 71 1 83h129c48 0 85-40 85-92v-49z m-62-71h-107c-15 0-27-14-27-29s12-29 27-29h107c15 0 27 14 27 29s-12 29-27 29z m0 177h-107c-15 0-27-15-27-30s12-29 27-29h107c15 0 27 14 27 29 0 16-12 30-27 30z" horiz-adv-x="1000" />

<glyph glyph-name="32" unicode="&#xe91f;" d="M500 635c-266 0-500-183-500-294 0-104 226-309 500-309 269 0 500 207 500 309 0 100-226 294-500 294z m-448-294c0 36 55 99 140 152v-311c-11 8-22 16-32 24v217h-32v-190c-43 44-76 86-76 108z m172-179v349c74 40 173 71 277 71 105 0 201-31 276-72v-349c-75-43-171-76-276-76-106 0-203 33-277 77z m584 19v311c11-7 22-13 32-20v-230h32v205c43-42 79-84 79-106 0-31-57-101-143-160z m-170 221h-32v-53h-85v53h-32v-53h-95v53h-32v-53h-64v-32h64v-53h32v53h95v-53h32v53h85v-53h32v53h64v32h-64z m85-53h32v-32h-32v32z m-478 0h32v-32h-32v32z" horiz-adv-x="1000" />

<glyph glyph-name="33" unicode="&#xe920;" d="M500 833c-276 0-500-224-500-500s224-500 500-500c276 0 500 224 500 500s-224 500-500 500z m421-601c-251 165-501 225-669 246 9 26 20 52 31 76 79 1 149 21 217 40 59 16 114 31 168 31 74 0 145-19 175-28 56-73 90-165 90-264 0-35-4-69-12-101z m-662 364c-34 7-51 31-58 50 45 43 99 76 160 97-38-39-73-90-102-147z m534 55c-35 8-79 15-125 15-60 0-118-17-179-34-59-16-120-33-185-37 42 77 94 136 142 168 18 2 36 3 54 3 113 0 216-43 293-115z m-622-36c14-24 36-46 70-56-11-25-21-50-30-77-48 5-87 6-115 6 18 47 43 89 75 127z m19-213c-3-15-6-30-8-45-44-2-80-17-107-44-2-2-5-5-7-7-1 9-1 18-1 27 0 40 6 79 16 115 26 0 66 0 117-5-4-13-7-27-10-41z m-113-159c11 32 39 68 101 73-10-124 16-240 76-339-89 62-154 156-177 266z m259-310c-110 127-126 273-118 380 63-19 142-101 219-180 79-82 160-167 237-196-53-24-112-37-174-37-58 0-114 12-164 33z m393 33c-74-2-170 98-264 195-86 89-168 174-243 192 2 15 5 29 7 41 4 15 7 30 11 45 166-20 417-79 669-248-33-94-97-173-180-225z" horiz-adv-x="1000" />

<glyph glyph-name="34" unicode="&#xe921;" d="M988 357c0 263-217 476-486 476-35 0-62-28-62-63v-350h-364c-35 0-63-28-63-64 0-131 56-257 155-347-7-15-10-32-10-49 0-71 58-127 130-127 55 0 103 34 121 86h182c19-52 66-86 121-86 72 0 130 57 130 129 0 17-3 32-10 48 99 90 156 214 156 347z m-482 410c211-1 379-150 411-347h-411v347z m-218-871c-35 0-64 29-64 64 0 36 29 65 64 65 36 0 64-29 64-65 0-35-28-64-64-64z m295 89h-166c-10 53-64 108-129 108-31 0-59-13-81-31-62 59-104 134-120 213h77v26h-82c-2 14-4 40-4 53h844c0-13-2-39-4-53h-425v-26h421c-17-79-59-156-121-214-22 18-50 32-81 32-65 0-119-55-129-108z m129-89c-35 0-64 29-64 64 0 36 29 65 64 65s64-29 64-65-29-64-64-64z m-404 405h53v-26h-53v26z m-105 0h53v-26h-53v26z m198 0h52v-26h-52v26z" horiz-adv-x="1000" />

<glyph glyph-name="35" unicode="&#xe922;" d="M357 375c-37 0-58-29-58-66v-25c0-37 24-67 61-67 17 0 29 7 41 20 13 12 14 29 14 47v25c0 37-21 66-58 66z m32-91c0-10-2-20-9-28-8-7-12-11-22-11-22 0-33 17-33 39v25c0 21 11 39 32 39s32-18 32-39v-25z m181 91c-37 0-65-29-65-66v-25c0-37 28-67 65-67s65 30 65 67v25c0 37-28 66-65 66z m39-91c0-22-18-39-39-39s-39 17-39 39v25c0 21 18 39 39 39s39-18 39-39v-25z m-135 207l27-3-42-367-28 3 43 367z m488 295c-27 28-64 44-103 44-36 0-71-14-97-38l-105-99-254-12-403-399 441-446 403 399 15 262 97 89c56 53 59 143 6 200z m-186-520l-334-332-344 348 334 331 163 7c-8-17-12-36-13-55-1-38 13-74 39-101 26-28 62-44 99-44l1 41c-26 1-52 12-70 31-19 20-28 45-27 72 0 21 8 42 21 59l152 7-21-364z m86 291l9 146-150-7 70 65c18 18 42 27 68 27 27 0 54-11 72-31 38-40 36-103-4-141l-65-59z" horiz-adv-x="1000" />

<glyph glyph-name="36" unicode="&#xe923;" d="M618 231c-23 0-41-19-41-42s18-42 41-42c11 0 21 4 28 12 8 8 13 18 13 30 0 23-19 42-41 42z m12-56c-3-3-8-5-12-5-10 0-18 8-18 19 0 10 8 19 18 19s18-9 18-19c0-5-2-10-6-14z m194 56c-23 0-41-19-41-42s18-42 41-42c11 0 21 4 29 12s12 19 12 30c0 23-19 42-41 42z m12-56c-3-3-7-5-12-5-10 0-18 8-18 19 0 10 8 19 18 19s18-9 18-19c0-5-2-10-6-14z m-115 148c-23 0-41-19-41-42s18-42 41-42c11 0 21 4 28 12 8 8 13 18 13 30 0 23-19 42-41 42z m12-56c-3-3-7-5-12-5-10 0-18 8-18 19 0 10 8 19 18 19s18-9 18-19c0-6-2-10-6-14z m-12-128c-23 0-41-19-41-42s18-42 41-42c11 0 21 4 28 12 8 8 13 19 13 30 0 23-19 42-41 42z m12-56c-3-3-8-5-12-5-10 0-18 9-18 19 0 11 8 19 18 19s18-8 18-19c0-5-2-10-6-14z m190 282c-50 52-117 80-187 80h-64c-11 34-44 57-84 57h-109c0 12-1 7-3 9-22 32-5 50 24 73 20 16 28 30 34 42 11 21 13 44 5 65-10 29-36 53-75 71-8 4-19 0-22-9-4-8 0-19 8-22 30-14 50-32 57-51 4-13 3-25-3-38-5-8-9-19-25-32-22-17-66-50-39-108h-28c-39 0-73-23-84-57h-74c-5 0-10 0-15-1-134-13-239-132-239-271 0-149 119-270 265-270 76 0 148 36 198 93h74c50-57 122-93 199-93 145 0 264 121 264 271 0 72-27 140-77 191z m-187-406c-64 0-123 31-162 82l-9 13h-130l-9-13c-39-51-98-81-161-81-115 0-207 96-207 214 0 110 82 202 188 213h2c2 0 4 0 6 0h129v32c0 16 12 26 29 26h176c17 0 36-10 36-26v-32h112c55 0 107-22 146-62s61-94 60-152c1-118-92-214-206-214z m-175 451h-124c-8 0-14-9-14-17s6-17 14-17h124c8 0 14 9 14 17s-6 17-14 17z m-208-207h-74v71c0 9-8 17-17 17s-17-8-17-17v-71h-72c-9 0-17-7-17-17s8-17 17-17h72v-75c0-10 7-17 17-17s17 7 17 17v75h74c10 0 18 8 18 17s-8 17-18 17z" horiz-adv-x="1000" />

<glyph glyph-name="37" unicode="&#xe924;" d="M850 447h57c7 0 17 10 17 16v58c0 6-10 15-17 15h-57c-6 0-15-9-15-15v-58c0-6 9-16 15-16z m50 190h-226l-43 76h-258l-44-76h-225c-58 0-104-47-104-104v-476c0-57 46-104 104-104h796c57 0 100 47 100 104v476c0 57-43 104-100 104z m-796-63h215l37-22 54 98h183l55-98 36 22h216c22 0 37-19 37-41v-149h-224c-34 76-116 143-211 143s-178-67-212-143h-227v149c0 22 18 41 41 41z m563-279c0-91-74-165-165-165s-165 74-165 165 74 165 165 165c91 0 165-74 165-165z m233-278h-796c-23 0-41 17-41 40v302h219c-6-26-9-42-9-62 0-126 103-230 229-230s228 104 228 230c0 21-3 36-8 62h215v-302c0-23-15-40-37-40z m-531 266h35c0 63 52 108 102 108v35c-76 0-137-67-137-143z" horiz-adv-x="1000" />

<glyph glyph-name="38" unicode="&#xe925;" d="M503 440c83 0 151-67 151-149 0-83-68-150-151-150-84 0-152 67-152 150 1 82 68 149 152 149z m0 73c-124 0-224-100-224-222 0-123 100-223 224-223 123 0 224 100 224 223 0 122-101 222-224 222v0z m305-47c-25 0-45-19-45-43 0-25 20-45 45-45 24 0 44 20 44 45 0 24-19 43-44 43z m-194 225l87-128 22-31 38-1h96c68 0 70-68 70-68v-418c0-38-31-70-70-70h-714c-39 0-70 32-70 70v418c0 37 31 68 71 68l126 1 21 31 90 128h233z m16 73h-264c-15 0-28-7-37-20l-98-140h-88c-79 0-143-63-143-141v-418c0-79 64-143 143-143h714c79 0 143 64 143 143v418c0 37-28 141-143 141h-96l-94 139c-8 13-22 21-37 21v0z" horiz-adv-x="1000" />

<glyph glyph-name="39" unicode="&#xe926;" d="M984 668c-256 120-300 131-311 131h-53c-8 0-16-2-22-8-5-7-6-15-4-23s3-15 3-23c0-51-42-93-93-93s-93 42-93 94c0 7 1 15 3 23 2 9 0 15-5 22-5 6-13 8-22 8h-52c-6 0-15 2-318-123-11-5-18-15-17-27l23-206c1-9 6-16 13-21 7-4 16-5 24-2l103 39v-360c0-7 3-20 9-25 5-5 12-13 20-13 0 0 0 0 0 0v11l1-3c2 0 3 2 5 2 100 0 181-79 181-179 0-15 13-25 28-25h209c15 0 27 11 27 26 0 98 75 177 173 180 15 1 24 12 24 26v360l105-39c8-3 19-2 26 3s12 12 13 21l16 198c1 12-5 21-16 26z m-51-184l-106 40c-8 3-17 2-24-3-8-6-11-14-11-23v-373c-109-16-190-100-202-209h-157c-13 121-113 201-222 210v373c0 9 0 17-8 22-7 5-15 7-23 3l-107-40-16 146c120 50 258 108 281 108h18c0 0 0 4 0 3 0-82 66-146 148-146 81 0 148 63 148 144 0 1 0-1 0-1h19c22 0 153-59 273-114l-11-140z m-295-42c6 9 14 20 22 30 3 3 3 7 0 9s-7 3-9 0c-7-8-13-16-19-23 4 15 1 28 1 29-1 3-4 6-8 5-3-1-6-5-5-8 0-1 6-28-14-45-1 6-4 11-9 15l-16 17c-1 0-1 0-1 1-6 4-12 7-17 7-4 0-10-2-14-8l-13-17c-4-5-5-11-3-17 2-5 5-10 10-14 1 0 1 0 1-1l6-3c-10 2-20 3-30 3-55 0-104-29-125-73-2 1-4 1-6 1-20 0-37-17-37-38s17-38 37-38c15-51 70-88 131-88 62 0 116 37 131 88 1 0 1 0 2 0 20 0 37 17 37 38s-17 38-37 38c-3 0-5-1-8-1 0 0 0 1 0 1 2 0 3 0 5 0 6 0 12 2 16 8l12 16c5 8 4 14 3 18-2 4-6 8-11 12 0 1-1 1-1 1l-21 11c-4 3-9 5-14 5-2 0-4-1-6-1 5 5 22 18 47 12 3-1 7 1 8 5 1 3-2 7-5 8-16 4-30 2-40-3z m-38-25l2 3c1 1 3 2 5 2 1 0 3 0 4-1s2-3 2-4c0-2 0-4-1-5l-2-3c-2-3-6-3-9-1s-4 6-1 9z m-54 24c-1 1-1 3 1 5l12 17c2 2 3 2 4 2s4 0 8-4l17-16c0-1 0-1 1-1 5-4 6-11 2-16l-3-3c-2-3-5-5-9-5-2 0-5 1-6 2s-1 1-1 1l-21 11c-3 2-5 4-5 7z m40-34c0 0-1 1-1 1s1 0 1 0c0 0 0-1 0-1z m67-71c13 0 23-11 23-24s-10-25-23-25c-2 0-4 1-5 1l-7 1-1-6c-12-48-62-84-120-84s-108 35-120 84l-1 6-6-1c-2 0-3-1-4-1-13 0-24 11-24 25 0 13 11 24 24 24 3 0 5 0 7-1l6-2 3 6c17 42 63 70 115 70s98-28 115-71l3-6 6 3c3 1 6 1 9 1z m-19 71c3 0 5-1 7-2 0 0 0 0 1-1l20-11c4-3 6-5 6-6 1-1 1-2-1-5l-12-16c-2-3-4-3-5-3-2 0-5 1-8 3l-16 17c-1 0-1 0-1 0-5 4-6 11-2 16l2 4c2 3 6 4 9 4z m-175-87c-6 0-12-6-12-13s6-12 12-12 13 6 13 12-6 13-13 13z m0-18c-3 0-5 2-5 6s2 5 5 5c3 0 6-2 6-5s-3-6-6-6z m108 18c-6 0-12-6-12-13s6-12 12-12 13 6 13 12-6 13-13 13z m0-18c-3 0-5 2-5 6s2 5 5 5c3 0 6-2 6-5s-3-6-6-6z m-21-45c-31-19-61-1-63 0-1 1-3 1-4-1s-1-4 1-5c1 0 15-9 36-9 10 0 22 2 34 9 1 1 2 3 1 5-1 1-3 2-5 1z" horiz-adv-x="1000" />

<glyph glyph-name="40" unicode="&#xe927;" d="M917 833c-38 0-69-31-69-69v-140h-209v20c0 40-33 73-73 73-35 0-64-24-71-57-8 33-37 57-72 57-40 0-73-33-73-73 0 40-31 73-71 73s-71-33-71-73v-20h-56v140c0 38-31 69-69 69-39 0-70-31-70-69v-861c0-39 31-70 70-70 38 0 69 31 69 70v165h125v-26c0-41 35-74 75-74s75 33 75 74c0-41 31-74 71-74 41 0 72 33 72 74v26h278v-165c0-39 31-70 69-70 39 0 70 31 70 70v861c0 38-31 69-70 69z m-806-930c0-13-9-24-21-24-13 0-21 11-21 24v861c0 12 8 23 21 23 12 0 21-11 21-23v-861z m431 741c0 15 13 27 28 27 14 0 27-12 27-27v-85c0-15-13-27-27-27-15 0-28 12-28 27v85z m-139 0c0 15 6 27 21 27 14 0 20-12 20-27v-85c0-15-6-27-20-27-15 0-21 12-21 27v85z m-153 0c0 15 13 27 27 27 15 0 28-12 28-27v-85c0-15-13-27-28-27-14 0-27 12-27 27v85z m125-602c0-15-6-27-21-27s-21 12-21 27v85c0 15 6 27 21 27s21-12 21-27v-85z m153 0c0-15-13-27-28-27s-28 12-28 27v85c0 15 13 27 28 27s28-12 28-27v-85z m320 67h-278v18c0 40-31 73-72 73s-72-33-72-73c0 40-34 73-74 73-41 0-75-33-75-73v-18h-125v209h334v-18c0-40 33-73 73-73s73 33 73 73c0-40 33-73 73-73s73 33 73 73v18h70v-209z m-320 191v85c0 15 13 27 28 27s28-12 28-27v-85c0-14-13-27-28-27s-28 13-28 27z m153 0v85c0 15 13 27 28 27s28-12 28-27v-85c0-14-13-27-28-27s-28 13-28 27z m167 74h-70v11c0 41-33 74-73 74s-73-33-73-74c0 41-33 74-73 74-41 0-73-33-73-74v-11h-334v208h56v-23c0-40 31-73 71-73s72 33 72 73c0-40 33-73 73-73 35 0 64 24 71 57 8-33 36-57 71-57 41 0 73 33 73 73v23h209v-208z m83-471c0-13-8-24-21-24-12 0-20 11-20 24v861c0 12 8 23 20 23 13 0 21-11 21-23v-861z" horiz-adv-x="1000" />

<glyph glyph-name="41" unicode="&#xe928;" d="M407 258h35v-35h-35v35z m81 0h35v-35h-35v35z m82 0h35v-35h-35v35z m410 93h-108v128h39c16 0 29 13 29 29s-13 29-29 29h-56c-35 23-168 116-357 116-188 0-319-93-353-116h-56c-16 0-29-13-29-29s13-29 29-29h39v-128h-108c-9 0-20-7-20-17v-38c0-9 9-16 17-17l111-16v-240c0-66 52-114 118-114h508c66 0 118 48 118 114v240l111 16c8 1 17 8 17 17v38c0 10-11 17-20 17z m-482 244c102 0 187-23 245-58h-488c57 35 141 58 243 58z m-463-284v5h93v-18l-93 13z m779-288c0-34-26-56-60-56h-508c-34 0-60 22-60 56v456h628v-456z m151 288l-93-13v18h93v-5z m-500 365h58v23h35v59h-116v-59h23z" horiz-adv-x="1000" />

<glyph glyph-name="42" unicode="&#xe929;" d="M808 833h-616c-16 0-27-18-27-35v-885c0-16 11-33 27-33h43v-24c0-9 3-23 12-23h506c10 0 12 14 12 23v24h43c16 0 27 17 27 33v885c0 17-11 35-27 35z m-31-59v-494h-553v494h553z m-48-906h-458v12h458v-12z m48 71h-553v282h553v-282z m-483 247h35v-188h-35v188z m0 530h35v-400h-35v400z m230-220l64 37v-76h36v76l63-37 17 30-64 37 64 37-17 31-63-37v75h-36v-75l-64 37-18-31 64-37-64-37 18-30z m48 72l16 30h34l16-30-16-29h-34l-16 29z" horiz-adv-x="1000" />

<glyph glyph-name="43" unicode="&#xe92a;" d="M969 413h-60v24c0 124-177 214-410 214s-409-90-409-214v-24h-59c-17 0-31-20-31-37s14-37 31-37h59v-312c0-72 66-128 139-128h542c73 0 138 56 138 128v312h60c17 0 31 20 31 37s-14 37-31 37z m-818 24c0 84 160 152 348 152s348-68 348-152v-24h-696v24z m620-477h-542c-36 0-66 25-70 62h682c-4-37-34-62-70-62z m76 98h-696v281h696v-281z m-430 648h166c17 0 31 13 31 31s-14 30-31 30h-166c-17 0-30-13-30-30 0-18 13-31 30-31z" horiz-adv-x="1000" />

<glyph glyph-name="44" unicode="&#xe92b;" d="M983 560l-472 201c-7 3-15 3-22 0l-472-201c-11-4-17-14-17-26 0-11 5-21 16-25l182-67v-181c0-8 9-17 16-22 4-2 47-27 100-48v-113c-42-8-74-44-74-87 0-49 39-88 88-88s89 39 89 88c0 43-30 79-72 87v103c42-12 89-21 146-21 84 0 182 20 291 77 9 5 14 14 14 24v181l186 67c10 4 18 14 18 25 0 12-6 22-17 26z m-601-569c0-30-24-55-55-55s-55 25-55 55c0 27 19 50 45 54 2-2 6-3 10-3s8 1 10 3c26-4 45-27 45-54z m-121 285v146l53-18v-154c-21 10-42 20-53 26z m483 2c-178-84-315-68-399-40v154l147-54c3-1 5-1 9-1 3 0 7 0 10 1l233 84v-144z m-243 116l-156 56v23c0 9-6 16-15 16s-16-7-16-16v-11l-209 75 396 169 397-169-397-143z" horiz-adv-x="1000" />

<glyph glyph-name="45" unicode="&#xe92c;" d="M500 833c-276 0-500-224-500-500 0-275 224-500 500-500s500 225 500 500c0 276-224 500-500 500z m0-926c-235 0-426 191-426 426s191 426 426 426 426-191 426-426c0-235-191-426-426-426z m0 490c-35 0-64-29-64-64s29-64 64-64c35 0 64 29 64 64s-29 64-64 64z m-204 0c-35 0-63-29-63-64s28-64 63-64c36 0 64 29 64 64s-28 64-64 64z m408 0c-35 0-64-29-64-64s29-64 64-64c35 0 64 29 64 64s-29 64-64 64z" horiz-adv-x="1000" />

<glyph glyph-name="46" unicode="&#xe92d;" d="M500 833c-276 0-500-224-500-500 0-275 224-500 500-500s500 225 500 500c0 276-224 500-500 500z m0-976c-262 0-476 214-476 476 0 263 214 476 476 476s476-213 476-476c0-262-214-476-476-476z m0 926c-248 0-449-202-449-450s201-449 449-449 449 201 449 449c0 248-201 450-449 450z m389-508c-52 46-113 82-179 106 15 75 48 143 97 199 54-68 87-154 87-247 0-20-2-39-5-58z m-403 452v-69h26v69c113-4 208-52 278-128-52-58-88-131-105-210-59 19-121 29-185 29-68 0-135-11-197-32-16 77-50 149-100 206 70 80 170 131 283 135z m0-787c-88 3-178 39-244 96 46 74 71 162 71 253 0 24-2 48-6 72 57 19 116 30 179 31v-452z m26 452c63-1 115-10 168-28-3-25-5-50-5-75 0-94 26-184 75-259-65-54-150-87-238-90v452z m-324 181c45-55 77-123 91-195-62-24-119-58-169-100-2 18-4 36-4 55 0 90 31 173 82 240z m-72-324c48 44 105 79 168 103 2-21 4-42 4-63 0-84-23-166-65-235-53 52-91 119-107 195z m654-202c-45 70-70 155-70 242 0 22 2 45 5 67 67-25 128-63 179-110-18-78-58-146-114-199z m-284 598h26v-63h-26v63z m0-76h26v-50h-26v50z m0-63h26v-50h-26v50z" horiz-adv-x="1000" />

<glyph glyph-name="47" unicode="&#xe92e;" d="M858 343c0 107-44 203-119 269v149c0 46-42 72-86 72h-313c-44 0-76-26-76-72v-149c-75-66-122-162-122-269s47-204 122-270v-149c0-46 32-91 76-91h313c44 0 86 45 86 91v149c0 5 10 11 15 16 68 68 104 158 104 254z m-556 418c0 25 15 35 38 35h313c22 0 36-10 36-35v-119c-50 37-121 59-194 59s-143-22-193-59v119z m-99-418c0 161 132 293 293 293 162 0 294-132 294-293 0-79-31-152-86-208-56-55-129-86-208-86-161 0-293 132-293 294z m486-419c0-25-13-53-36-53h-313c-23 0-38 28-38 53v119c50-37 120-59 193-59 72 0 132 21 194 59v-119z m-357 488l100-58c-2-5-2-10-2-15 0-35 28-64 64-64 35 0 64 29 64 64 0 7-2 14-4 20l164 119c5 4 7 13 2 18-4 6-12 8-18 3l-161-117c-12 13-29 21-47 21-21 0-39-10-51-25l-98 56c-6 4-14 2-18-5-4-6-1-14 5-17z m162-35c21 0 38-17 38-38s-17-38-38-38c-21 0-38 17-38 38 0 5 1 9 2 13 0 1 1 1 1 1 0 1 1 2 1 3 6 12 19 21 34 21z" horiz-adv-x="1000" />

<glyph glyph-name="48" unicode="&#xe92f;" d="M754 833h-396l-270-277v-565c0-87 71-158 158-158h157v36h194v-36h157c87 0 158 71 158 158v329h-34v27h34v329c0 87-71 157-158 157z m88-421h-34v-158h34v-259c0-50-41-91-91-91h-90v36h-322v-36h-90c-50 0-91 41-91 91v290h34v127h-34v115l229 235h100v-185h63v185h59v-188h63v188h59v-188h63v177c28-15 48-45 48-79v-260z m-134-356h-356v390h356v-390z m-314 42h272v306h-272v-306z" horiz-adv-x="1000" />

<glyph glyph-name="49" unicode="&#xe930;" d="M1000 384h-80c11 24 16 59 16 91 0 147-120 267-267 267-63 0-122-22-170-61-48 39-108 60-170 60-148 0-268-119-268-266 0-32 6-67 16-91h-77v-34h91c12-24 29-47 49-67l359-358 359 358c20 20 36 43 49 67h93v34z m-501-382l-321 320c-8 9-16 16-23 28h115l32 28v-99l67 71h42l77 73v-189l112 116h42l32 28v-99l67 71h102c-7-12-15-19-24-28l-320-320z m229 382l-30-28v98l-69-70h-42l-75-74v190l-114-115h-42l-30-29v98l-69-69h-121c-13 23-20 58-20 90 0 117 95 212 213 212 57 0 110-22 150-63l20-19 19 19c40 40 94 63 151 63 117 0 213-95 213-212 0-32-8-67-21-91h-133z" horiz-adv-x="1000" />

<glyph glyph-name="50" unicode="&#xe931;" d="M704 648c-15 19-28 64-34 118-4 37-38 67-80 67h-185c-42 0-76-30-80-67-6-54-17-98-31-117-57-28-94-88-94-156v-319c0-68 37-126 94-155 15-19 26-64 32-118 3-37 37-68 79-68h185c42 0 76 31 80 68 6 54 19 98 34 117 56 28 96 88 96 156v319c0 68-40 126-96 155z m-321 112c1 6 10 14 22 14h185c12 0 21-8 21-14 4-36 10-66 18-91-2 0-3 0-5 0h-254c-1 0-3 0-5 0 8 25 14 55 18 91z m228-853c0-6-9-15-21-15h-185c-12 0-21 9-22 15-4 35-10 66-18 91 2 0 4 0 5 0h254c2 0 3 0 5 0-8-25-14-56-18-91z m130 265c0-64-51-115-115-115h-252c-64 0-115 51-115 115v322c0 64 51 116 115 116h252c64 0 115-52 115-116v-322z m-110 256l-125-72-139 140c-7 7-18 7-25 0s-7-18 0-25l148-150c3-3 8-5 13-5 3 0 6 1 8 2l138 80c8 5 11 15 6 24-4 8-15 11-24 6z m-131 117c10 0 18 8 18 18v4c0 9-8 17-18 17s-18-8-18-17v-4c0-10 8-18 18-18z m0-423c-10 0-18-8-18-18v-3c0-10 8-18 18-18s18 8 18 18v3c0 10-8 18-18 18z m-201 229h-3c-10 0-18-8-18-18s8-17 18-17h3c10 0 18 7 18 17s-8 18-18 18z m396 0c-9 0-17-8-17-18s8-17 17-17h4c10 0 18 7 18 17s-8 18-18 18h-4z" horiz-adv-x="1000" />

<glyph glyph-name="51" unicode="&#xe932;" d="M939 376h-770v246c0 64 52 116 115 116 34 0 63-15 85-40-61-18-107-75-107-138v-21h292v21c0 72-55 134-127 142-29 53-82 85-142 85-91 0-162-74-162-165v-246h-65c-33 0-58-26-58-60 0-29 18-54 53-59v-73c0-103 61-195 156-231l-13-42c-4-13 3-26 16-30 12-4 26 4 30 17l13 40c13-2 26-5 39-5h410c14 0 28 4 42 6l13-43c3-10 13-17 23-17 3 0 5 1 7 2 7 1 12 6 15 12s4 12 2 18l-12 43c93 37 156 129 156 230v73c23 5 50 30 50 59 0 34-27 60-61 60z m-36-116v-76c0-109-91-193-199-193h-410c-109 0-195 84-195 193v76h804z m-845 69h881c6 0 12-5 12-11s-6-12-12-12h-881c-6 0-11 6-11 12s5 11 11 11z m262 257c11 35 49 70 91 70 43 0 81-35 92-70h-183z m-46-58h47v-59h-47v59z m117 0h35v-59h-35v59z m58-59h35v-58h-35v58z m-117 0h47v-58h-47v58z m175 59h35v-59h-35v59z" horiz-adv-x="1000" />

<glyph glyph-name="52" unicode="&#xe933;" d="M766 265c64 0 116 52 116 116 0 65-52 117-116 117-21 0-42-6-60-17l-172 138 3 3c11 11 17 26 17 42s-6 31-17 42l-7 8c5-5 11-7 19-8 6 0 13 3 18 8l32 30c10 10 11 27 1 37l-42 44c-9 10-27 11-37 1l-32-30c-5-5-8-11-8-18-1-8 2-14 7-19l6-6-2-2-21 21c-11 12-26 18-42 18s-31-6-42-18l-34-34c-15 4-31 6-46 6-57 0-110-22-150-63-10-10-20-21-28-33l-11-18 78-79c-10-14-16-30-16-48 0-45 37-82 82-82 17 0 34 6 48 16l95-94 18 11c12 8 23 18 34 28 48 48 69 117 59 184l151-122c-12-19-18-40-18-63 0-33 15-63 40-86l-191-290h-185c-15 0-30-15-30-30v-31h-72c-14 0-26-15-26-30v-54c0-15 12-27 26-27h560c15 0 28 12 28 27v54c0 15-13 30-28 30h-70v31c0 15-17 30-31 30h-109l175 265c10-2 20-5 30-5z m-453-370h437v-13h-516v13h79z m19 36v25h320v-25h-320z m364 450c0 39 31 70 70 70 38 0 70-31 70-70s-32-69-70-69c-39 0-70 31-70 69z m-434 87c-19 0-35 16-35 35 0 7 2 14 6 20l49-49c-6-4-13-6-20-6z m-25 109l-59 58c4 5 8 9 12 13 31 31 73 49 117 49 16 0 31-3 46-7l4-1c13-4 25-10 36-16 0-1 0-1 1-1 2-1 4-3 6-4 1-1 2-1 2-2 2-1 4-2 5-3s2-2 3-2c1-2 3-3 5-4 0-1 1-2 2-2 2-2 4-4 6-7 1 0 1 0 1 0 4-4 7-8 11-12 0-1 1-2 2-3 2-3 5-7 8-10 0-1 0-2 1-2 2-4 5-8 7-12 0-1 0-1 0-1 32-62 22-141-30-193-4-4-8-8-13-12l-173 174z m234 78c-1 2-2 3-3 4-2 2-3 4-5 6-1 1-2 2-3 3-2 3-5 6-7 9-1 0-1 0-1 0s0 0 0 0c-3 4-7 7-11 11-1 0-1 1-2 2-4 3-8 6-12 8-1 1-1 2-2 2-9 6-18 12-28 16l23 23c5 5 13 5 18 0l66-66c2-2 4-5 4-9 0-3-2-6-4-9l-20-19c0 1-1 1-1 2-2 3-3 5-5 8-1 1-2 2-3 4s-2 4-4 5z m52 146l51-54-9-8-51 54 9 8z" horiz-adv-x="1000" />

<glyph glyph-name="53" unicode="&#xe934;" d="M500 833c-211 0-383-172-383-383 0-16 13-29 28-29h321v-23h-21c-15 0-26-19-26-34v-378h-222c-16 0-25-7-25-23v-97c0-15 9-33 25-33h606c16 0 27 18 27 33v97c0 16-11 23-27 23h-219v378c0 15-14 34-29 34h-30v23h141v-152c-12-8-25-25-25-44 0-27 23-48 50-48 26 0 47 21 47 48 0 22-13 41-37 46v150h154c15 0 28 13 28 29 0 211-172 383-383 383z m-269-941v47h541v-47h-541z m247 106v341h47v-341h-47z m214 213c-8 0-14 6-14 14s6 14 14 14c8 0 14-6 14-14s-6-14-14-14z m-192 567c169 0 311-133 325-298h-650c14 165 156 298 325 298z" horiz-adv-x="1000" />

<glyph glyph-name="54" unicode="&#xe935;" d="M1000 542c0 13-10 23-22 23h-42v33c0 60-49 109-109 109h-649c-61 0-110-49-110-109v-33h-46c-12 0-22-10-22-23v-264c0-5 1-9 4-12-3-4-4-8-4-12v-162c0-12 10-22 22-22h46v-111h119v111h654v-111h120v111h17c12 0 22 10 22 22v162c0 4-1 8-4 12 3 3 4 7 4 12v264z m-858-538h-29v54h29v-54z m774 0h-30v54h30v-54z m39 296h-83v220h83v-220z m-842 298c0 35 29 64 65 64h649c35 0 64-29 64-64v-34h-41c-13 0-23-10-23-22v-264c0-1 0-1 0-2h-654c0 1 0 1 0 2v264c0 13-10 23-23 23h-37v33z m-68-78h83v-220h-83v220z m0-289h910v-117h-910v117z" horiz-adv-x="1000" />

<glyph glyph-name="55" unicode="&#xe936;" d="M1000 487c0 11-9 20-19 20h-28v21c0 46-38 84-84 84h-735c-46 0-84-38-84-84v-21h-31c-10 0-19-9-19-20v-195c0-3 1-6 2-9-1-2-2-5-2-8v-120c0-10 9-19 19-19h31v-81h94v81h734v-81h93v81h10c10 0 19 9 19 19v119c0 4-1 7-2 9 1 3 2 6 2 9v195z m-895-394h-16v34h16v-34z m827 0h-16v34h16v-34z m29 219h-55v156h55v-156z m-872 216c0 25 20 45 45 45h735c25 0 45-20 45-45v-21h-27c-11 0-20-9-20-20v-193h-734v193c0 11-9 20-19 20h-25v21z m-50-60h55v-156h-55v156z m0-213h922v-80h-922v80z m199 216c17 0 30 13 30 30s-13 31-30 31c-17 0-31-14-31-31s14-30 31-30z m0 41c6 0 11-5 11-11s-5-11-11-11c-6 0-11 5-11 11s5 11 11 11z m0-174c17 0 30 14 30 31s-13 30-30 30c-17 0-31-13-31-30s14-31 31-31z m0 42c6 0 11-5 11-11s-5-11-11-11c-6 0-11 5-11 11s5 11 11 11z m247 91c17 0 31 13 31 30s-14 31-31 31-30-14-30-31 13-30 30-30z m0 41c6 0 11-5 11-11s-5-11-11-11c-6 0-11 5-11 11s5 11 11 11z m0-174c17 0 31 14 31 31s-14 30-31 30-30-13-30-30c0-17 13-31 30-31z m0 42c6 0 11-5 11-11s-5-11-11-11c-6 0-11 5-11 11s5 11 11 11z m247 91c17 0 31 13 31 30s-14 31-31 31c-17 0-30-14-30-31s13-30 30-30z m0 41c6 0 12-5 12-11s-6-11-12-11c-6 0-11 5-11 11s5 11 11 11z m0-174c17 0 31 14 31 31s-14 30-31 30c-17 0-30-13-30-30s13-31 30-31z m0 42c6 0 12-5 12-11s-6-11-12-11c-6 0-11 5-11 11s5 11 11 11z" horiz-adv-x="1000" />

<glyph glyph-name="56" unicode="&#xe937;" d="M981 201c12 15 19 35 19 55 0 51-41 92-91 92h-487c13 13 21 30 21 50 0 40-33 72-72 72h-115c-26 0-49-13-61-34v153c0 50-41 91-92 91h-12c-50 0-91-41-91-91v-408c0 0 0 0 0 0v-97c0-11 9-20 20-20h27v-78h95v78h698v-78h96v78h44c11 0 20 9 20 20v97c0 11-8 20-19 20z m-878-175h-17v35h17v-35z m793 0h-16v35h16v-35z m65 230c0-28-24-51-52-51h-714v103h714c28 0 52-23 52-52z m-705 175h115c18 0 32-15 32-33s-14-33-32-33h-115c-18 0-33 15-33 33s15 33 33 33z m-52-83h-9v12c2-4 6-8 9-12z m-164 241c0 29 23 52 51 52h12c29 0 52-23 52-52v-388h-115v388z m921-485h-921v58h921v-58z" horiz-adv-x="1000" />

<glyph glyph-name="57" unicode="&#xe938;" d="M1000 578c0 41-33 74-74 74h-852c-41 0-74-33-74-74s33-74 74-74h3v-312c0-46 36-84 82-87v-91h121v91h452v-91h120v91h4c48 0 87 39 87 87v314c33 8 57 37 57 72z m-188-523h-40v44h40v-44z m-573 0h-40v44h40v-44z m664 137c0-26-21-47-47-47h-692c-25 0-47 21-47 47v312h786v-312z m23 353h-852c-19 0-34 15-34 33s15 34 34 34h852c19 0 34-15 34-34 0-18-15-33-34-33z m-765-366h456c6 0 11 4 11 10v280c0 5-5 10-11 10h-456c-5 0-10-5-10-10v-280c0-6 5-10 10-10z m10 279h436v-259h-436v259z m505-279h174c6 0 10 4 10 10v280c0 5-4 10-10 10h-174c-6 0-10-5-10-10v-280c0-6 4-10 10-10z m10 279h154v-259h-154v259z m-386-44h170v-20h-170v20z m429 0h76v-20h-76v20z" horiz-adv-x="1000" />

<glyph glyph-name="58" unicode="&#xe939;" d="M736 414h-120c0 1 0 1 0 2v41c0 7-6 13-13 13h-92v170h-26v4h60v-56c-7-4-12-11-12-20 0-13 11-23 23-23s23 10 23 23c0 10-6 18-14 21v55h60c11 0 20 9 20 20 0 93-77 169-170 169-94 0-170-76-170-169 0-11 9-20 20-20h140v-4h-26v-170h-92c-8 0-13-6-13-13v-41c0-1 0-1 0-2h-69c-47 0-84-38-84-84v-365c0-44 34-80 77-83v-49h39v49h396v-49h38v49h5c46 0 83 37 83 83v365c0 46-37 84-83 84z m-180 151c-2 0-3 1-3 3s1 4 3 4c2 0 4-2 4-4s-2-3-4-3z m-81 229c66 0 120-48 129-111h-259c10 63 64 111 130 111z m-10-180h20v-143h-20v143z m-106-170h231v-15h-231v15z m-94-69h471c24 0 45-20 45-45v-187h-562v187c0 25 21 45 46 45z m471-455h-471c-25 0-46 21-46 45v158h562v-158c0-25-21-45-45-45z m-290 324h104v-20h-104v20z m0-211h104v-19h-104v19z" horiz-adv-x="1000" />

<glyph glyph-name="59" unicode="&#xe93a;" d="M561 65c-19 0-33-15-33-33 0-19 14-34 33-34 18 0 33 15 33 34 0 18-15 33-33 33z m0-45c-7 0-12 5-12 12 0 6 5 11 12 11s11-5 11-11-5-12-11-12z m-159-22c18 0 33 15 33 34 0 18-15 33-33 33s-33-15-33-33c0-19 14-34 33-34z m0 45c6 0 11-5 11-11 0-7-5-12-11-12-7 0-12 5-12 12 0 6 5 11 12 11z m515 272h-253v71h-83v52h151c37 0 68 30 68 68v236c0 37-31 68-68 68h-482c-37 0-68-31-68-68v-236c0-38 31-68 68-68h151v-52h-83v-71h-235c-46 0-83-37-83-83v-238c0-43 33-78 74-82v-56h43v55h761v-55h43v55c44 2 79 38 79 83v238c0 46-37 83-83 83z m-692 191v236c0 14 11 25 25 25h482c14 0 25-11 25-25v-236c0-14-12-25-25-25h-482c-14 0-25 11-25 25z m219-115v45h94v-45h-94z m-83-48h260v-5h-260v5z m-278-71h834c22 0 40-18 40-40v-98h-914v98c0 22 18 40 40 40z m-40-278v119h427v-159h-387c-22 0-40 18-40 40z m874-40h-425v159h465v-119c0-22-18-40-40-40z" horiz-adv-x="1000" />

<glyph glyph-name="60" unicode="&#xe93b;" d="M732 350v399c0 48-33 84-81 84h-303c-48 0-92-36-92-84v-399c-36-5-73-42-73-87v-52c0-42 37-76 73-85v-275c0-11 6-18 18-18h44c10 0 19 8 21 18l31 275h264l31-275c1-10 10-18 21-18h44c12 0 26 7 26 18v276c37 11 61 44 61 84v52c0 45-36 82-85 87z m-427 399c0 25 19 48 43 48h303c24 0 44-23 44-48v-404h-390v404z m-6-879h-6v244h34l-28-244z m406 0l-28 244h32v-244h-4z m22 292h-455c-25 0-40 24-40 49v52c0 25 15 46 40 46h455c25 0 45-21 45-45v-55c0-24-20-47-45-47z" horiz-adv-x="1000" />

<glyph glyph-name="61" unicode="&#xe93c;" d="M163 363c20 0 37 16 37 35v344c0 19-17 36-37 36s-38-17-38-36v-344c0-19 18-35 38-35z m142-67h-270c-18 0-35-18-35-38s17-38 35-38h90v-296c0-19 18-35 38-35s37 16 37 35v296h105c19 0 35 18 35 38s-16 38-35 38z m329 244h-114v202c0 19-18 36-38 36s-37-17-37-36v-202h-80c-19 0-35-18-35-38s16-37 35-37h269c19 0 36 17 36 37s-17 38-36 38z m-152-144c-20 0-37-17-37-36v-436c0-19 17-35 37-35s38 16 38 35v436c0 19-18 36-38 36z m338-124c20 0 38 17 38 36v434c0 19-18 36-38 36s-37-17-37-36v-434c0-19 17-36 37-36z m145-70h-270c-6 0-35-2-35-29s29-28 35-28h88v-221c0-19 17-35 37-35s38 16 38 35v221h107c6 0 35 2 35 28 0 21-18 29-35 29z" horiz-adv-x="1000" />

<glyph glyph-name="62" unicode="&#xe93d;" d="M53 588h894c29 0 53 17 53 55s-24 54-53 54h-894c-29 0-53-16-53-54s24-55 53-55z m894-200h-894c-29 0-53-26-53-55s24-54 53-54h894c29 0 53 25 53 54s-24 55-53 55z m-455-310h-439c-29 0-53-25-53-54 0-30 24-55 53-55h439c30 0 53 25 53 55 0 29-24 54-53 54z" horiz-adv-x="1000" />

<glyph glyph-name="63" unicode="&#xe93e;" d="M53 588h894c29 0 53 17 53 55s-24 54-53 54h-894c-29 0-53-16-53-54s24-55 53-55z m894-200h-894c-29 0-53-26-53-55s24-54 53-54h894c29 0 53 25 53 54s-24 55-53 55z m0-310h-894c-29 0-53-25-53-54 0-30 24-55 53-55h894c29 0 53 25 53 55 0 29-24 54-53 54z" horiz-adv-x="1000" />

<glyph glyph-name="64" unicode="&#xe93f;" d="M295 758l157-207-50-38c-56-42-67-123-25-180l103-136c26-34 64-51 103-51 27 0 54 8 77 26l50 38 157-208-58-43c-45-35-102-51-160-51-86 0-174 37-226 105l-238 316c-86 113-60 300 53 386l57 43z m0 75c-16 0-32-5-45-15l-58-43c-146-111-178-345-67-492l239-316c63-84 170-134 285-134 76 0 149 23 205 66l58 43c33 25 39 72 14 105l-156 208c-12 15-30 26-50 29-3 0-7 0-10 0-16 0-32-5-45-15l-50-38c-12-8-24-10-32-10-17 0-33 7-43 21l-103 136c-18 24-13 58 10 75l50 38c33 25 39 72 14 105l-156 207c-12 16-30 27-50 29-3 1-6 1-10 1v0z" horiz-adv-x="1000" />

<glyph glyph-name="65" unicode="&#xe940;" d="M479 352c-136 0-247 108-247 240s111 241 247 241c136 0 246-108 246-241s-110-240-246-240z m0 410c-96 0-175-76-175-170 0-93 79-169 175-169s174 76 174 169c0 94-78 170-174 170z m178-447h-314c-174 0-315-140-315-314v-168h944v168c0 174-141 314-315 314z m246-407h-806v91c0 133 109 241 242 241h322c133 0 242-108 242-241v-91z" horiz-adv-x="1000" />

<glyph glyph-name="66" unicode="&#xe941;" d="M984-88l-254 254c57 71 91 160 91 258 0 226-183 409-409 409s-409-183-409-409c0-226 183-409 409-409 95 0 182 32 252 87l255-255c9-9 21-14 33-14 11 0 23 5 32 14 18 18 18 47 0 65z m-889 512c0 175 142 317 317 317s317-142 317-317c0-175-142-317-317-317s-317 142-317 317z" horiz-adv-x="1000" />

<glyph glyph-name="67" unicode="&#xe942;" d="M929 638h-191c-20 110-117 195-233 195-117 0-213-85-233-195h-201c-18 0-33-15-33-33v-620c0-84 69-152 153-152h618c84 0 153 68 153 152v620c0 18-15 33-33 33z m-424 129c79 0 145-55 164-129h-329c19 74 85 129 165 129z m391-782c0-48-39-87-87-87h-618c-48 0-87 39-87 87v588h164v-146h66v146h341v-146h66v146h155v-588z" horiz-adv-x="1000" />

<glyph glyph-name="68" unicode="&#xe943;" d="M500-167c-13 0-25 7-32 17-47 70-94 144-138 221-53 89-94 166-122 227-36 85-53 147-53 191 0 95 34 178 100 244 67 67 149 100 245 100s178-33 244-100c67-66 101-149 101-244 0-45-17-107-52-190-28-62-69-138-123-228-45-78-91-152-137-221-8-10-20-17-33-17z m0 922c-75 0-137-25-189-77s-77-114-77-189c0-23 8-69 46-160 26-57 66-131 117-219 34-57 68-113 103-167 34 53 69 109 103 167 52 88 91 162 118 220 37 90 45 136 45 159 0 75-25 137-77 189s-114 77-189 77z m0-393c-34 0-65 13-89 38-25 24-38 55-38 89s13 64 38 89c24 24 55 37 89 37s64-12 89-37c25-25 37-55 37-89s-13-65-37-89c-25-25-55-38-89-38z m0 175c-13 0-24-5-34-15s-14-20-14-33c0-14 4-24 14-34s21-14 34-14c13 0 24 4 33 14 10 10 15 20 15 34 0 13-5 23-15 33s-20 15-33 15z" horiz-adv-x="1000" />

<glyph glyph-name="69" unicode="&#xe944;" d="M500-167c-138 0-257 49-354 146-97 98-146 217-146 354 0 138 49 257 146 354s216 146 354 146c137 0 256-49 354-146 97-97 146-216 146-354 0-137-49-256-146-354-97-97-216-146-354-146z m0 923c-118 0-216-40-299-123-84-84-124-182-124-300s40-216 124-299c83-84 181-124 299-124s216 40 299 124c84 83 124 181 124 299s-40 216-124 300c-83 83-181 123-299 123z m-43-161h87v-87h-87v87z m0-174h87v-349h-87v349z" horiz-adv-x="1000" />

<glyph glyph-name="70" unicode="&#xe945;" d="M807 625l-13 13c-38 37-83 66-132 87-50 20-103 30-158 30-68 0-132-15-190-45s-108-71-147-124c-37-48-62-102-76-161h83c20 72 60 131 119 177 61 48 132 72 210 72 43 0 85-7 125-23 40-15 76-38 109-68l14-13-114-114h272v271l-102-102z m-614-584l13-12c38-38 83-67 133-87 49-20 102-31 158-31 67 0 131 15 189 45s108 72 147 124c37 48 62 102 76 161h-83c-20-71-60-131-119-177-62-48-132-72-210-72-43 0-85 8-125 23-40 16-76 38-109 68l-14 13 114 114h-272v-271l102 102z" horiz-adv-x="1000" />

<glyph glyph-name="71" unicode="&#xe946;" d="M130 333l178 179v-134h563v-90h-563v-134z" horiz-adv-x="1000" />

<glyph glyph-name="72" unicode="&#xe947;" d="M871 333l-179 179v-134h-562v-90h562v-134z" horiz-adv-x="1000" />

<glyph glyph-name="73" unicode="&#xe948;" d="M500-104l211 211h-171v664h-106v-664h-145z" horiz-adv-x="1000" />

<glyph glyph-name="74" unicode="&#xe949;" d="M500 771l211-212h-171v-663h-106v663h-145z" horiz-adv-x="1000" />

<glyph glyph-name="75" unicode="&#xe94a;" d="M0 656v-645h1000v645h-1000z m936-581h-871v516h209v-290h65v290h129v-145h64v145h129v-290h49v290h226v-516z" horiz-adv-x="1000" />

<glyph glyph-name="76" unicode="&#xe94b;" d="M914-81h-224v-86h310v311h-86z m-828 828h242v86h-328v-310h86z m828 0v-224h86v310h-310v-86z m-828-828v225h-86v-311h328v86z" horiz-adv-x="1000" />

<glyph glyph-name="77" unicode="&#xe94c;" d="M426 126c-10 0-21 4-29 12-16 16-16 42 0 58l137 137-137 138c-16 16-16 41 0 57s42 16 58 0l195-195-195-195c-8-8-19-12-29-12z m74 707c-276 0-500-224-500-500s224-500 500-500c276 0 500 225 500 500s-224 500-500 500z m0-969c-258 0-469 211-469 469 0 259 211 469 469 469 259 0 469-210 469-469 0-258-210-469-469-469z" horiz-adv-x="1000" />

<glyph glyph-name="78" unicode="&#xe94d;" d="M545 138l-194 195 194 195c16 16 42 16 58 0s16-41 0-57l-137-138 137-137c16-16 16-42 0-58-8-8-19-12-29-12s-21 4-29 12z m-545 195c0-275 224-500 500-500s500 225 500 500-224 500-500 500c-276 0-500-224-500-500z m31 0c0 259 211 469 469 469 259 0 469-210 469-469 0-258-210-469-469-469-258 0-469 211-469 469z" horiz-adv-x="1000" />

<glyph glyph-name="79" unicode="&#xe94e;" d="M305 288l195 195 195-195c16-16 16-42 0-58s-42-15-58 0l-137 138-137-138c-16-15-42-15-58 0-8 8-12 19-12 29s4 21 12 29z m195 545c-276 0-500-224-500-500 0-275 224-500 500-500s500 225 500 500c0 276-224 500-500 500z m0-31c259 0 469-210 469-469 0-258-210-469-469-469-258 0-469 211-469 469 0 259 211 469 469 469z" horiz-adv-x="1000" />

<glyph glyph-name="80" unicode="&#xe94f;" d="M293 407c0 11 4 21 12 29 16 16 42 16 58 0l137-137 137 137c16 16 42 16 58 0s16-42 0-58l-195-194-195 194c-8 8-12 19-12 29z m707-74c0 276-224 500-500 500s-500-224-500-500c0-275 224-500 500-500s500 225 500 500z m-969 0c0 259 211 469 469 469 259 0 469-210 469-469 0-258-210-469-469-469-258 0-469 211-469 469z" horiz-adv-x="1000" />

<glyph glyph-name="angle-right-solid" unicode="&#xe950;" d="M405 699l-45-44 322-322-322-321 45-45 366 366-22 23z" horiz-adv-x="1000" />

<glyph glyph-name="angle-left-solid" unicode="&#xe951;" d="M595 699l-344-343-21-23 21-22 344-344 45 45-322 321 322 322z" horiz-adv-x="1000" />

<glyph glyph-name="angle-up-solid" unicode="&#xe952;" d="M500 627l-22-21-391-391 45-45 368 368 368-368 45 45-390 391z" horiz-adv-x="1000" />

<glyph glyph-name="angle-down-solid" unicode="&#xe953;" d="M132 496l-45-45 413-412 23 22 390 390-45 45-368-368z" horiz-adv-x="1000" />

<glyph glyph-name="85" unicode="&#xe954;" d="M762-146c-13 0-26 4-38 11l-224 133-225-133c-12-7-25-11-38-11h-3c-15 1-29 6-41 15-12 8-21 20-26 34-5 12-6 27-3 42l57 255-196 173c-11 10-19 23-22 37-4 13-4 28 1 42 4 14 13 26 24 35s25 15 40 16l260 25 104 239c6 14 15 26 27 33l2 2c25 14 57 14 80-2 13-8 22-20 28-33l103-239 261-25c14-2 28-7 39-16s20-21 24-35c5-14 5-29 2-43-4-14-12-27-23-36l-196-173 57-255c3-15 2-29-3-43-5-13-14-25-27-34-12-9-26-13-40-14-1 0-2 0-4 0z m-262 211c9 0 18-2 26-7l232-137c2-2 3-2 4-2v0c3 0 5 1 6 2 2 1 3 3 3 4 1 2 1 4 1 6l-59 263c-2 8-2 17 1 27 3 9 9 17 15 23l203 178c1 1 2 2 3 4 0 2 0 4-1 6 0 2-1 3-3 4-1 1-2 2-4 2h-1l-268 25c-9 1-18 5-25 10-8 5-14 13-17 21l-107 248c-1 2-3 3-4 4-2 1-6 2-9 1l-2-1c-1-2-2-3-3-4l-106-247c-4-9-10-17-18-22-7-5-16-9-26-9l-267-26c-2 0-4 0-5-1-2-2-3-3-3-5-1-2-1-4-1-5 1-2 2-4 3-5l203-178c7-7 12-15 15-24 2-8 3-17 1-25l-1-6-58-258c-1-2-1-4 0-5 1-2 2-3 3-5 2-1 4-1 6-2 1 0 3 1 5 2l232 137c8 5 17 7 26 7z" horiz-adv-x="1000" />

<glyph glyph-name="86" unicode="&#xe955;" d="M762-146c-13 0-26 4-38 11l-224 133-225-133c-12-7-25-11-38-11h-3c-15 1-29 6-41 15-12 8-21 20-26 34-5 12-6 27-3 42l57 255-196 173c-11 10-19 23-22 37-4 13-4 28 1 42 4 14 13 26 24 35s25 15 40 16l260 25 104 239c6 14 15 26 27 33l2 2c25 14 57 14 80-2 13-8 22-20 28-33l103-239 261-25c14-2 28-7 39-16s20-21 24-35c5-14 5-29 2-43-4-14-12-27-23-36l-196-173 57-255c3-15 2-29-3-43-5-13-14-25-27-34-12-9-26-13-40-14-1 0-2 0-4 0z" horiz-adv-x="1000" />

<glyph glyph-name="87" unicode="&#xe956;" d="M509-102c-10 0-19 4-27 11-13 12-325 295-428 433-35 48-54 96-54 141 0 77 28 145 83 201 54 54 127 84 207 84 84 0 149-32 215-82 55 52 131 82 212 82 77 0 142-28 198-84 56-58 85-125 85-201 0-52-16-99-46-141-104-138-405-421-418-433-8-7-18-11-27-11z m-219 791c-59 0-111-21-151-61-40-41-60-89-60-145 0-27 14-60 38-93 82-110 312-325 391-398 77 73 301 288 382 398 21 27 31 58 31 93 0 55-20 102-63 145-41 42-85 61-141 61-71 0-136-30-178-82-6-8-16-13-26-14-11-1-21 2-29 9-78 63-130 87-194 87z" horiz-adv-x="1000" />

<glyph glyph-name="88" unicode="&#xe957;" d="M509-102c-10 0-19 4-27 11-13 12-325 295-428 433-35 48-54 96-54 141 0 77 28 145 83 201 54 54 127 84 207 84 84 0 149-32 215-82 55 52 131 82 212 82 77 0 142-28 198-84 56-58 85-125 85-201 0-52-16-99-46-141-104-138-405-421-418-433-8-7-18-11-27-11z" horiz-adv-x="1000" />

<glyph glyph-name="89" unicode="&#xe958;" d="M569 333l253 253c19 19 19 50 0 69s-50 19-69 0l-253-253-253 253c-19 19-50 19-69 0s-19-50 0-69l254-253-254-253c-19-19-19-50 0-68 10-10 22-15 35-15s24 5 34 15l253 253 253-254c10-9 22-14 35-14s24 5 34 14c19 19 19 50 0 69l-253 253z" horiz-adv-x="1000" />

<glyph glyph-name="90" unicode="&#xe959;" d="M384 471l244-138-244-137v275z m-34 90c-11 0-23-5-31-14v-427c8-10 20-14 31-14 12 0 23 4 32 14l319 179c18 19 18 49 0 68l-319 180c-9 9-20 14-32 14v0z m150 272c-276 0-500-224-500-500 0-275 224-500 500-500s500 225 500 500c0 276-224 500-500 500z m0-31c259 0 469-210 469-469 0-258-210-469-469-469-258 0-469 211-469 469 0 259 211 469 469 469z" horiz-adv-x="1000" />

<glyph glyph-name="91" unicode="&#xe95a;" d="M976 392l-391 370c-23 22-53 34-85 34s-62-12-85-34l-390-370c-23-20-31-48-20-77s38-45 69-45h27v-375c0-18 14-24 32-24h735c17 0 32 6 32 24v375h26c31 0 58 16 69 45s3 57-19 77z m-583-460v163c0 56 52 102 108 102s107-46 107-102v-163h-215z m542 404c-1-3-4-4-9-4h-58c-18 0-29-18-29-36v-364h-169v163c0 92-78 166-169 166-92 0-169-74-169-166v-163h-167v368c0 18-15 32-32 32h-59c-5 0-8 1-9 4-1 2-1 5 4 10l391 369c22 21 58 21 80 0l392-370c4-4 4-7 3-9z" horiz-adv-x="1000" />

<glyph glyph-name="92" unicode="&#xe95b;" d="M471-27h529v65h-529c-14 57-66 99-127 99s-112-42-127-99h-217v-65h217c15-57 66-99 127-99s113 42 127 99z m-192 32c0 37 29 66 65 66s66-29 66-66c0-36-30-65-66-65s-65 29-65 65z m504 295h217v66h-217c-15 57-66 98-127 98s-112-41-127-98h-529v-66h529c15-56 66-98 127-98s112 42 127 98z m-193 33c0 36 30 66 66 66s65-30 65-66c0-36-29-65-65-65s-66 29-66 65z m-119 295h529v66h-529c-14 56-66 98-127 98s-112-42-127-98h-217v-66h217c15-56 66-98 127-98s113 42 127 98z m-192 33c0 36 29 65 65 65s66-29 66-65c0-36-30-66-66-66s-65 30-65 66z" horiz-adv-x="1000" />

<glyph glyph-name="93" unicode="&#xe95c;" d="M710 624h-420c-160 0-290-131-290-291s130-290 290-290h420c160 0 290 130 290 290s-130 291-290 291z m0-517h-420c-124 0-225 102-225 226 0 125 101 226 225 226h420c124 0 225-101 225-226 0-124-101-226-225-226z m-444 396c-93 0-169-76-169-170 0-93 76-169 169-169s170 76 170 169c0 94-76 170-170 170z m0-275c-58 0-105 47-105 105s47 105 105 105c58 0 105-47 105-105s-47-105-105-105z" horiz-adv-x="1000" />

<glyph glyph-name="94" unicode="&#xe95d;" d="M699 613h-413c-158 0-286-122-286-280 0-157 128-279 286-279h413c157 0 285 122 285 279 0 158-128 280-285 280z m-437-446c-92 0-167 74-167 166s75 167 167 167c92 0 167-75 167-167s-75-166-167-166z" horiz-adv-x="984.4" />

<glyph glyph-name="95" unicode="&#xe95e;" d="M290 49h420c160 0 290 124 290 284s-130 284-290 284h-420c-160 0-290-124-290-284s130-284 290-284z m444 454c93 0 169-76 169-170s-76-169-169-169c-94 0-170 76-170 169 0 94 76 170 170 170z" horiz-adv-x="1000" />

<glyph glyph-name="96" unicode="&#xe95f;" d="M44 530h421v-109c0-24 20-44 45-44 24 0 44 20 44 44v109h402c24 0 44 20 44 44s-20 45-44 45h-402v123c0 24-20 44-44 44-25 0-45-20-45-44v-123h-421c-24 0-44-20-44-45 0-24 20-44 44-44z m912-411h-402v126c0 25-20 45-44 45-25 0-45-20-45-45v-126h-421c-24 0-44-20-44-45 0-24 20-44 44-44h421v-105c0-25 21-44 45-44s44 19 44 44v105h402c24 0 44 20 44 44 0 25-20 45-44 45z" horiz-adv-x="1000" />

<glyph glyph-name="97" unicode="&#xe960;" d="M379-14l-94 1-285 285 95 95 239-239 573 552 93-96z" horiz-adv-x="1000" />

<glyph glyph-name="98" unicode="&#xe961;" d="M988 24l-409 709c-16 28-47 45-79 45s-62-17-79-45l-409-709c-16-28-16-63 0-91s47-45 79-45h818c33 0 63 17 79 45s16 63 0 91z m-451 519l-11-381h-52l-11 381h74z m-37-525c-27 0-45 20-45 47 0 28 19 48 45 48 28 0 45-20 45-48 0-26-17-47-45-47z" horiz-adv-x="1000" />

<glyph glyph-name="99" unicode="&#xe962;" d="M938 204v190c0 242-195 439-438 439-242 0-437-197-437-439v-223h-2c10-125 98-225 202-225h25v475h-25c-55 0-112-22-150-67v40c0 210 171 381 381 381s382-171 382-381v-40c-38 45-85 67-139 67h-24v-475h-3c-32-13-72-31-109-44v56h-213v-125h194l4 1c223 64 308 203 312 209l1 3c27 41 40 90 40 141 0 6-1 12-1 17z m-62-34c-6-78-50-142-113-158v350c63-15 113-79 113-157v-35z m-638 192v-350c-75 17-115 91-115 175 0 85 40 158 115 175z m313-454v-12h-100v12h100z" horiz-adv-x="1000" />

<glyph glyph-name="100" unicode="&#xe963;" d="M511 416c-114 0-207 94-207 209s93 208 207 208c114 0 207-93 207-208s-93-209-207-209z m0 353c-79 0-144-65-144-144 0-80 65-145 144-145s144 65 144 145c0 79-65 144-144 144z m63-936c-10 0-20 3-28 9-14 9-23 25-23 42v416c0 14 6 27 15 37 5 4 112 107 301 107 40 0 80-4 121-13 24-6 40-26 40-50v-425c0-14-6-28-17-38-9-8-21-12-33-12h-1c-1 0-3 0-5 0h-1c-1 0-11 1-29 1-55 0-169-9-321-70-6-3-13-4-19-4z m13 462v-392c153 59 270 68 327 68 9 0 16 0 23-1v400c-33 7-66 10-98 10-146 0-233-69-252-85z m-161-462c-6 0-12 1-18 4-153 61-267 70-322 70-19 0-30-1-30-1-15-2-28 3-39 13-11 9-17 23-17 37v425c0 24 16 44 40 50 41 9 81 13 121 13 189 0 296-103 301-107 9-10 15-23 15-37v-416c0-17-9-33-22-42-9-6-19-9-29-9z m-340 138c57 0 174-9 327-68v392c-19 16-105 85-252 85-32 0-65-3-98-10v-400c6 1 14 1 23 1z" horiz-adv-x="1000" />

<glyph glyph-name="101" unicode="&#xe964;" d="M751 556c-1 7-7 12-15 12-13 0-27 0-41 0-9 70-57 129-125 154v45c0 37-32 66-72 66s-72-29-72-66v-45c-68-25-116-84-125-154-12 0-25 0-37 0-7 0-14-5-15-12-12-49-12-98 0-146 1-7 8-12 15-12 6-1 12-1 18-1v-390c0-98 79-174 181-174h82c100 0 170 71 170 174v390c7 0 14 0 21 1 8 0 14 5 15 12 12 48 12 97 0 146z m-300 141c8 3 13 11 11 20-1 2-2 4-4 6v44c0 19 18 35 40 35s40-16 40-35v-49c0-1-1-1-1-2-2-8 2-17 11-19 61-18 105-68 115-128-110 1-220 1-329 0 9 61 54 111 117 128z m231-690c0-84-56-143-137-143h-82c-85 0-149 62-149 143v390c62-1 124-2 186-2 61 0 122 1 182 2v-390z m41 422c-148-3-298-3-446 0-7 36-7 72 0 108 148 3 298 3 446 0 7-36 7-72 0-108z m-361-172c0-9 7-16 16-16h144c9 0 16 7 16 16 0 8-7 15-16 15h-144c-9 0-16-7-16-15z m16-126h64c9 0 16 7 16 16s-7 16-16 16h-64c-9 0-16-7-16-16s7-16 16-16z m80-78h-80c-9 0-16-7-16-16s7-16 16-16h80c9 0 16 7 16 16s-7 16-16 16z" horiz-adv-x="1000" />

<glyph glyph-name="102" unicode="&#xe965;" d="M868 511h-88v85c0 15 0 21-1 25-5 18-18 31-36 36 22 10 38 32 38 58 0 30-44 93-53 105l-9 13-9-13c-9-12-53-75-53-105 0-26 15-48 37-57-33-9-37-36-37-49v-98h-94v85c1 15 0 21-1 25-5 18-17 31-36 36 23 10 39 32 39 58 0 30-44 93-53 105l-9 13-10-13c-8-12-52-75-52-105 0-26 15-48 37-57-33-9-37-36-37-49v-98h-95v85c0 15 0 21-1 25-5 18-18 31-36 36 22 10 38 32 38 58 0 30-44 93-53 105l-9 13-9-13c-9-12-53-75-53-105 0-26 15-48 37-57-33-9-37-36-37-49v-98h-90c-32 0-58-27-58-60v-319c0-31 23-57 52-60v-147c0-51 40-92 88-92h575c49 0 88 41 88 92v341c27 5 47 29 47 58v127c0 33-26 60-57 60z m-188 204c0 14 21 50 39 78 18-28 39-64 39-78 0-21-18-39-39-39s-39 18-39 39z m0-106c0 8 0 28 39 28 14 0 32-4 38-22 0-3 0-14 0-19v-85h-77v98z m-216 106c0 14 20 50 39 78 18-28 39-64 39-78 0-21-18-39-39-39-22 0-39 18-39 39z m0-106c0 8 0 28 39 28 14 0 32-4 37-22 1-3 1-14 1-19l-1-4 1-81h-77v98z m-218 106c0 14 21 50 39 78 19-28 39-64 39-78 0-21-17-39-39-39-21 0-39 18-39 39z m0-106c0 8 0 28 39 28 14 0 33-4 38-22 0-3 0-14 0-19v-85h-77v98z m24-464h-65v108c0 5 11 12 27 12s26-7 26-12v0-72c0-13 5-26 12-36z m-66-24h651v-120h-705v71c27 1 50 22 54 49z m173 24c7 10 12 23 12 36v48c0 19 15 36 34 36h432v-120h-478z m413-288h-575c-36 0-65 31-65 68v52h705v-52c0-37-29-68-65-68z m112 467c0-19-15-35-34-35h-445c-32 0-57-27-57-60v-48c0-20-16-36-35-36h-15c-19 0-35 16-35 36v72c0 20-22 36-49 36-28 0-50-16-50-36v-121c0-20-15-36-34-36h-15c-19 0-35 16-35 36v319c0 20 16 36 35 36h735c19 0 34-16 34-36v-127z" horiz-adv-x="1000" />

<glyph glyph-name="103" unicode="&#xe966;" d="M767 614c6 11 9 27 9 43 0 33-14 58-33 63v74c0 7-6 13-13 13 0 0 0 0 0 0l-471-3c-7 0-12-6-12-13v-105l1-55c-160-134-250-409-248-756h13l-13-3c0-3 1-6 4-9 2-2 5-4 9-4 0 0 0 0 0 0l974 4c7 0 13 6 13 13v6c0 6 0 13 0 19-2 322-84 574-233 713z m-22 12c-4-7-7-8-8-9-5 0-18 3-34 7 0 1 0 1-1 1-11 3-22 7-32 12 2 7 4 14 4 21 0 6-1 12-3 17 25 12 58 20 65 21v0c4 0 15-14 15-40 0-11-2-23-6-30z m-123-374l-10 11c-3 2-7 3-9 4-4 0-7-2-9-4l-11-11-2 356c6 2 11 5 16 7 6-5 14-7 23-8l2-355z m-349 386v35l210 1c-1-5-2-11-1-17 0-6 0-12 1-17l-210-2z m234 19c0 26 10 40 14 40 0 0 0 0 0 0 6 0 34-7 58-17-4-7-5-14-5-22s2-16 5-22l-15-7c-19-7-38-11-43-11v0c-1 0-4 2-8 8-4 8-6 20-6 31z m142 1c0-14-11-25-25-25v-3c0 0 0 0 0 0v3c-7 0-13 2-17 6-5 5-8 12-8 19s2 13 7 18c5 5 11 7 18 7 13 0 25-11 25-25z m4-41c11-6 23-11 35-15l39-239-11 8c-3 3-6 3-10 3-3-1-6-3-8-5l-8-13-44 257c3 1 5 2 7 4z m65 164v-63c-18-4-42-12-62-21-9 7-20 12-32 12-10 0-20-3-28-8-28 12-64 21-75 21 0 0 0 0 0 0-13 0-23-8-30-22l-219-1v79l446 3z m257-892l-950-4c0 336 87 600 240 728h50c-23-38-90-155-100-267-1-7 4-13 11-14 1 0 1 0 2 0 6 0 12 5 12 12 10 111 83 234 100 261l86 1c-10-41-34-152-35-260 0-7 5-13 12-13 0 0 0 0 0 0 7 0 13 6 13 13 1 122 34 253 38 268h37c8-14 18-22 30-22 7 1 20 3 35 8l2-380c1-5 4-10 8-12 2 0 3-1 5-1 3 0 7 2 9 4l23 24 22-23c4-4 10-5 14-3 5 2 8 7 8 12l-1 243 24-143c1-5 5-9 10-10s10 1 13 5l18 27 26-20c5-3 10-3 15 0 4 2 6 8 5 13l-42 259c10-2 18-4 22-4 0 0 0 0 0 0 4 0 9 2 13 4 143-134 223-380 225-694 0-4 0-8 0-12z" horiz-adv-x="1000" />

<glyph glyph-name="104" unicode="&#xe967;" d="M1000 605c0 73-60 133-134 133-42 0-82-20-107-53-71 50-161 80-260 80-98 0-188-30-258-80-25 33-65 53-107 53-74 0-134-60-134-133 0-61 41-113 98-129-4-20-6-41-6-62 0-115 63-221 171-287-14-18-23-40-23-64v-56c0-58 49-106 108-106 47 0 89 31 104 73 12-7 26-11 41-11 17 0 33 5 47 14 12-44 53-76 101-76 58 0 105 47 105 106v56c0 22-6 43-18 60 113 66 179 174 179 291 0 21-2 42-6 62 57 15 99 68 99 129z m-972 0c0 58 48 105 106 105 33 0 65-16 85-42-7-6-14-11-20-17-15 15-35 25-57 25-42 0-77-35-77-77 0-32 20-60 49-72-3-7-6-15-9-24-45 13-77 54-77 102z m97-52c-19 7-32 25-32 46 0 27 22 49 49 49 14 0 28-7 37-17-22-24-40-50-54-78z m223-624c-43 0-80 36-80 78v56c0 42 37 77 80 77 24 0 47-11 62-28-2 0-4 0-6 0h-6c-28 0-60-23-60-53v-34c0-31 32-53 60-53h6c6 0 12 1 18 2-13-26-42-45-74-45z m73 77c-5-4-11-6-17-6h-6c-14 0-32 11-32 25v34c0 13 18 25 32 25h6c7 0 12-3 15-6-5-10-8-22-8-34 0-13 4-26 10-38z m72-15c-29 0-53 24-53 53 0 12 3 23 10 32 10 14 26 22 43 22 30 0 54-24 54-54 0-10-3-19-8-27v0c0 0 0 0 0 0-1-1-1-2-2-3h-2v-3c-10-12-25-20-42-20z m78 78c5 9 14 15 24 15h6c17 0 19-18 19-25v-34c0-8-2-25-19-25h-6c-11 0-21 6-26 14 4 10 6 20 6 30 0 9-1 17-4 25z m147-62c0-43-34-78-77-78-33 0-61 20-72 49 8-4 17-6 26-6h6c28 0 47 21 47 53v34c0 32-19 53-47 53h-6c-3 0-5 0-8-1 14 18 34 29 57 29 42 0 74-34 74-77v-56z m-9 137c-17 15-40 24-65 24-42 0-78-26-94-65-15 14-35 23-57 23-17 0-35-6-49-16-17 34-55 58-96 58-23 0-45-8-63-21-104 61-165 159-165 267 0 178 170 323 379 323 210 0 380-145 380-323 0-109-63-209-170-270z m110 487c10 11 24 18 39 18 27 0 49-22 49-49 0-22-14-40-33-47-14 28-33 54-55 78z m75-128c-3 8-6 16-9 24 30 12 50 40 50 73 0 43-35 77-77 77-23 0-44-9-58-26-6 6-13 11-19 17 20 26 51 42 85 42 58 0 106-47 106-105 0-48-33-90-78-102z m-350-60c-12 6-26 10-42 10-14 0-28-4-40-10-86-13-148-72-148-139 0-78 84-142 187-142s186 64 186 142c0 67-58 123-143 139z m15-65c0-26-25-47-57-47s-56 21-56 47c0 26 25 47 56 47s57-21 57-47z m-58-188c-87 0-158 52-158 114 0 42 32 80 80 99-3-8-5-16-5-25 0-41 38-75 84-75s85 34 85 75c0 8-2 17-5 24 47-20 77-57 77-98 0-62-71-114-158-114z m-163 287h28v-42h-28v42z m296 0h28v-42h-28v42z" horiz-adv-x="1000" />

<glyph glyph-name="105" unicode="&#xe968;" d="M971 463c-12 22-26 44-44 62s-40 33-65 42c-25 8-51 10-74 7-24-3-46-10-66-18-41-16-75-38-104-60-31-23-57-47-79-68 136 199 274 254 331 255v-2c1-2 7-19 20-19 4 0 8 1 11 4 9 7 13 14 12 21-3 13-21 18-25 19h-2c-161 0-297-178-352-259 3 18-2 30-17 32-30 3-51-47-63-85 1 17 3 36 3 59 0 26-1 56-6 89-6 32-14 68-34 104-9 17-22 35-38 50-17 15-38 27-62 34-45 12-95 9-140-8s-84-48-113-85c-29-37-49-80-59-125-9-45-7-93 13-135 18-42 56-73 94-89 32-13 64-17 94-18-14-7-27-14-41-24-22-16-46-38-57-70-2-4-3-8-4-12v-3l-1-2v-8c-1-2-1-8-1-13s1-9 2-14c3-18 13-35 26-48 27-25 62-35 95-33 33 1 64 14 87 34s38 46 47 70c4 12 7 22 10 32 3 11 6 20 9 30 5 19 11 36 16 51 6 15 12 27 17 36 6 9 13 15 18 19s8 6 8 6-14 1-38-2c-12-1-27-2-43-5-17-3-36-6-56-11-6-1-12-3-17-5-19 0-39-1-60 1-31 2-65 9-95 24s-55 40-68 72c-13 32-13 70-5 107 9 37 26 73 51 104 24 30 56 55 91 69s74 17 108 10c33-8 59-31 77-59 18-29 29-61 38-90 7-30 12-59 16-84 3-26 5-48 6-67 1-12 1-22 1-31 0-3-1-4-1-4-3-18 1-20 2-20 0-2 0-4 0-4s0 2 1 4c4 2 8 5 12 8-6-7-9-12-9-12s7 9 22 22c5 5 9 9 14 13 3 3 7 7 11 11 16 14 35 30 58 48s49 38 79 57c30 19 63 38 101 50 37 13 79 18 115 4 37-14 64-48 82-87 19-38 23-82 19-125-5-44-19-87-41-124-21-36-51-68-85-84-18-8-36-12-54-13-9 0-18 1-27 3l-7 1c0 0-1 0 0 0h-1l-2 1-4 1c-5 1-10 2-15 4-37 10-70 26-97 45-13 10-24 21-35 31-11 15-21 29-32 41-14 16-29 30-42 42s-25 22-35 30c-20 16-32 23-32 23s3-3 8-10c2-2 4-4 6-7 7-9 17-22 29-39s27-38 43-62c6-8 12-16 19-25 4-9 9-18 13-27 10-21 18-44 20-66 2-23-2-45-15-63-6-9-14-18-23-25-8-6-19-10-29-13-21-5-44-1-62 10-17 11-28 29-32 49-1 11-1 21 1 32l1 8 2 9c1 6 2 13 3 19 5 24 9 46 12 68 3 21 6 40 7 58 2 17 2 32 2 45 1 13 0 23-2 29-1 7-3 10-3 10s1-3 0-10c-1-6-3-16-7-28-3-11-7-26-13-42-5-17-11-35-17-55-7-20-13-42-21-65-2-6-3-12-5-18l-3-9-3-11c-3-14-4-29-3-46 3-32 22-66 52-86 30-19 69-26 104-17 18 5 34 12 49 24 13 11 24 23 33 38s15 31 17 47c3 17 2 33-1 48 0 4-1 8-2 12 23-16 50-29 79-39 5-1 10-3 15-5l4-1h2l1-1h2l9-2c11-3 24-5 37-5 25 0 52 5 76 16 47 22 84 61 109 105s41 93 45 144c4 51-4 104-28 149z m-600-192c-9-14-19-30-28-49-10-18-19-39-28-59-8-18-20-36-36-48-15-13-36-20-56-21-21-1-42 6-55 19-7 6-11 13-13 21 0 2-1 5-1 6 0 2 0 2 0 6l1 5v3c0 2 1 4 2 7 5 18 19 35 37 50 17 14 37 27 57 37 20 11 40 20 58 27 11 5 21 9 30 12 16 5 30 9 42 13 10 3 18 6 26 9-2-1-4-2-6-4-10-8-20-20-30-34z" horiz-adv-x="1000" />

<glyph glyph-name="107" unicode="&#xe969;" d="M920 384c11 23 16 58 16 89 0 147-120 265-267 265-63 0-122-22-170-60-48 38-108 60-170 60-148 0-268-118-268-265 0-31 6-66 16-89h-77v-35h91c12-23 29-45 49-65l359-356 359 356c20 20 36 42 49 65h93v35h-80z m-101-62l-320-316-321 316c-8 9-16 16-23 27h115l32 29v-98l67 69h42l77 74v-188l112 114h42l32 29v-98l67 69h102c-7-11-15-18-24-27z m42 62h-133l-30-29v98l-69-69h-42l-75-73v187l-114-114h-42l-30-29v98l-69-69h-121c-13 23-20 58-20 89 0 117 95 211 213 211 57 0 110-22 150-62l20-20 19 20c40 39 94 61 151 61 117 0 213-93 213-210 0-31-8-66-21-89z" horiz-adv-x="1000" />

<glyph glyph-name="108" unicode="&#xe96a;" d="M892 638c-47-43-56-119-58-160h-353v317c0 12-9 22-20 25l-62 13c-1 0-3 0-5 0-198 0-365-154-391-355v0l-2-22c0-2-24-246 206-301h1l187-95-134-68c-18 20-43 32-71 32-53 0-97-43-97-96s44-95 97-95c53 0 96 43 96 95 0 7 0 14-2 20l166 84 163-84c-1-6-2-13-2-20 0-52 43-95 96-95s97 43 97 95-44 96-97 96c-28 0-53-12-71-31l-131 66 190 96c73 12 126 43 160 93 56 84 34 191 30 209-2 30 3 110 41 144 17 15 38 21 67 17l7 49c-44 6-80-4-108-29z m-702-755c-25 0-46 20-46 45s21 46 46 46c25 0 46-21 46-46s-21-45-46-45z m517 91c26 0 46-21 46-46s-20-45-46-45c-25 0-46 20-46 45s21 46 46 46z m-316 809l39-8v-297h-376c25 173 168 304 337 305z m448-355c2-12 3-29 3-49h-787c-3 19-5 37-5 49h789z m-520-273l263-1-132-66-131 67z m493 120c-25-38-68-62-127-71h-469c-98 25-139 92-155 150h779c-3-26-11-54-28-79z" horiz-adv-x="1000" />

<glyph glyph-name="109" unicode="&#xe96b;" d="M1000 442c0 77-30 148-82 196-45 40-100 59-160 54-80-6-135-39-165-98-6 9-13 17-21 24l64 101-30 19-64-101c-25 11-55 12-81 2l-60 100-31-19 60-98c-9-8-17-17-23-27-29 59-83 91-165 97-60 5-115-14-159-54-53-48-83-120-83-196 0-78 22-138 65-180 19-18 42-33 68-44-20-30-32-66-32-103 0-103 85-187 190-187 41 0 82 15 117 44 19-29 51-44 94-44 39 0 67 14 86 44 35-28 81-44 127-44 105 0 190 84 190 187 0 36-11 71-31 101 25 10 46 24 63 41 42 41 63 103 63 185z m-285-472c-40 0-80 16-108 43-1 20-4 113-5 214 25-14 56-31 92-31 6 0 13 1 20 1h1l1 1c0 0 2 0 10 0h27c21 0 48 1 77 6 20-25 31-57 31-89 0-80-65-145-146-145z m-476 680c95-8 128-51 143-115-20 8-42 12-65 12-97 0-177-79-177-175 0-49 20-94 55-127-41 8-75 24-99 47-35 34-53 84-53 150 0 64 26 125 69 164 31 29 70 44 112 44 5 0 10 0 15 0z m589-278c0-74-60-133-134-133-25 0-51 14-73 26-8 4-14 8-20 10 0 90 1 156 5 197 24 21 55 32 88 32 74 0 134-59 134-132z m-310 105c-4-1-8-2-12-2h-5c-10 1-17 1-22 3-27 8-45 33-45 61 0 35 29 64 65 64s66-29 66-64c0-29-20-54-47-62z m-200-238c-75 0-135 59-135 133 0 73 60 132 135 132 26 0 51-7 73-21 4-42 6-112 6-208-9-4-17-9-25-14-18-11-37-22-54-22z m-141-34c26-6 54-9 87-9 7 0 14 0 20 0 2 0 6 1 9 1s5 0 5 0c7 0 14-1 20-1 29 0 55 15 77 29 0 0 1 0 2 1-1-96-3-184-4-210-30-29-67-46-102-46-81 0-147 65-147 145 0 33 12 64 33 90z m259 245c9-6 17-10 26-12 23-8 48-9 69-2 10 2 20 6 30 10-7-130 1-371 3-426l-2-5c-11-28-24-45-60-45s-57 14-66 43c1 38 8 298 0 437z m380-205c35 33 55 78 55 127 0 96-79 175-177 175-28 0-55-6-79-18 13 58 45 112 147 120 47 4 91-11 126-43 43-39 69-100 69-164 0-70-17-122-50-155-23-22-52-36-91-42z" horiz-adv-x="1000" />

<glyph glyph-name="110" unicode="&#xe96c;" d="M886 517c0 0 0 0 0 0-57 168-211 280-386 280-171 0-324-108-383-270-1 0-3 0-5 0h-4c-62-2-111-68-108-146 3-77 54-138 116-138 0 0 0 0 0 0 34-94 99-172 186-221v-95c0-32 24-58 54-58h37c28 0 52 26 52 58v47c36-5 71-5 107-1v-46c0-32 24-58 54-58h37c29 0 52 26 52 58v93c85 47 150 123 185 213 2 0 4 0 6 0 63 0 114 64 114 142s-51 142-114 142z m-386 238c201 0 365-167 365-371 0-128-65-246-170-314v61c76 61 121 155 121 253 0 177-142 321-316 321s-317-144-317-321c0-97 44-190 119-251v-61c-104 68-168 186-168 312 0 204 164 371 366 371z m97-569c18-6 35-6 53 0 1 0 2 0 3 0v-259c0-9-5-15-10-15h-37c-7 0-12 7-12 15v259c1 0 2 0 3 0z m-152-118c36-7 71-7 107-1v-51c-36-5-72-4-107 1v51z m67 278c0-53 18-103 47-134-5-6-7-12-7-19v-83c-35-6-72-6-107 1v0 91c0 1 0 2-1 5 15 13 24 32 24 52v144h-3l-10 122h-34v-122h-30v122h-35v-122h-37v122h-34l-10-122h-2v-144c0-22 11-43 30-57-1-3-1-6-1-9v-2c-49 52-77 121-77 193 0 153 123 278 275 278 151 0 274-125 274-278 0-74-29-144-79-196v14c0 5-2 10-4 13 27 31 43 79 43 131 0 91-50 165-111 165s-111-74-111-165z m-197 14h111v-101c0-16-15-30-33-30h-43c-19 0-35 14-35 30v101z m35-174h43c4 0 7 0 10 0v-259c0-9-6-15-10-15h-37c-7 0-12 7-12 15v259c1 0 3 0 6 0z m292 43l-9-1v-3c-4-1-7-1-10-1-37 0-68 56-68 122s31 123 68 123 69-56 69-123c0-54-20-102-50-117z m-538 255c-8-33-12-67-12-100s4-65 11-96c-33 8-59 47-61 94-2 52 26 96 62 102z m794-11c34-8 60-49 60-98 0-52-29-94-65-99 10 35 14 71 14 108 0 30-3 60-9 89z" horiz-adv-x="1000" />

<glyph glyph-name="111" unicode="&#xe96d;" d="M500 833c-276 0-500-224-500-500s224-500 500-500c276 0 500 225 500 500s-224 500-500 500z m407-255c-82 7-144 0-195-21 33 69 28 146 20 190 72-40 132-99 175-169z m-407 230c73 0 142-16 204-46 8-37 23-134-25-213-44 73-158 211-316 239 43 13 89 20 137 20z m-475-475c0 194 117 361 284 435 170-2 296-147 345-226-294 46-447-47-627-246-1 12-2 25-2 37z m5-70c188 211 334 304 638 252 55-245-30-457-260-648-195 38-348 197-378 396z m470-405c-20 0-40 1-59 4 219 189 303 398 255 638 64-42 220-168 221-394-80-147-237-248-417-248z m203 667c54 28 122 36 219 27 34-66 53-140 53-219 0-63-13-124-35-180-19 178-132 307-237 372z" horiz-adv-x="1000" />

<glyph glyph-name="112" unicode="&#xe96e;" d="M880 463c-33 57-82 94-140 108-68 16-142-3-209-50 4 15 8 33 10 52 1 0 1 0 1 0 5-7 13-11 22-11 3 0 5 0 7 1 23 6 66 23 90 60 34 51 19 118 18 121-3 13-16 22-30 20-3-1-71-13-106-64-3-5-5-9-8-14-1 5-3 10-6 15-41 92-150 129-155 131-13 4-27-2-33-15-2-4-45-110-3-202 8-17 20-33 33-47-37 10-75 11-111 3-58-14-107-51-140-108-50-86-59-207-25-324 52-177 191-306 329-306 17 0 33 2 50 6 8 2 17 5 26 8 9-3 18-6 27-8 16-4 32-6 49-6 138 0 277 129 329 306 34 117 25 238-25 324z m-292 208c10 16 28 26 42 32 0-16-2-35-13-51s-28-26-43-33c0 16 3 36 14 52z m-206 100c30-14 78-44 99-92 17-37 11-91 2-129-34 19-80 50-97 87-21 47-12 103-4 134z m472-617c-45-153-165-268-278-268-13 0-25 1-37 4-9 2-19 5-28 10l-11 5-11-5c-9-5-19-8-28-10-12-3-24-4-37-4-113 0-233 115-278 268-30 104-23 209 20 282 26 45 63 73 107 84 67 16 144-14 208-79l19-19 19 19c64 65 141 95 208 79 44-11 81-40 107-84 43-73 51-179 20-282z" horiz-adv-x="1000" />

<glyph glyph-name="113" unicode="&#xe96f;" d="M963 271c0 60-49 109-109 109h-7c13 24 18 55 13 85-11 60-64 97-141 97h-25c13 28 14 52 6 74-17 42-69 59-111 72-18 6-35 11-45 17-11 7-24 18-25 30-2 13 11 27 15 31 7 5 10 13 8 21-1 8-7 15-15 18-2 1-24 8-54 8s-58-7-83-21c-28-16-61-50-73-99-7-27-9-68 15-117h-51c-60 0-109-49-109-108 0-24 8-45 20-63h-21c-75 0-134-51-134-116v-5c0-67 56-130 119-139 9-30 18-61 27-91 23-77 46-156 70-225l5-16h505l5 16c23 69 47 148 70 225 9 30 18 60 27 90 55 5 98 51 98 107z m-234-392h-438c-21 64-43 137-63 208-8 25-16 51-23 76h611c-7-25-15-50-23-76-21-71-42-144-64-208z m125 330h-683c-42 0-88 49-88 95v5c0 46 46 71 88 71v0h110c13 0 23 10 23 22 0 13-10 23-23 23-34 0-62 28-62 63 0 34 28 62 62 62h87c13 0 23 10 23 23v5c0 5-1 9-3 13-26 39-35 77-26 111 8 35 33 60 51 70s38 16 60 16c2 0 4 0 6-1-4-10-8-22-7-36 3-25 18-47 48-64 14-9 34-16 55-22 34-11 73-23 82-46 5-13 0-32-14-55 0-1 0-2-1-2v0h-50c-13 0-23-10-23-23s10-23 23-23h127c55 0 88-21 96-59 6-34-11-68-29-77h-414c-12 0-23-11-23-23 0-13 11-23 23-23h419c0 0 0 0 1 0h62c35 0 63-28 63-63 0-34-28-62-63-62z m-425 470c0-12-9-22-21-22s-22 10-22 22c0 11 10 21 22 21s21-10 21-21z m29-113c0-12-10-21-22-21s-21 9-21 21c0 11 10 21 21 21s22-10 22-21z m-129-99c0-12-10-21-21-21s-22 9-22 21c0 12 10 21 22 21s21-9 21-21z m415-42c0-12-9-21-21-21s-22 9-22 21c0 11 10 21 22 21s21-10 21-21z m-501-127c0-12-9-21-21-21s-22 9-22 21c0 12 10 21 22 21s21-9 21-21z m122-21c-12 0-22-10-22-21 0-12 10-22 22-22s21 10 21 22c0 11-9 21-21 21z m272 0c-12 0-22-10-22-21 0-12 10-22 22-22s21 10 21 22c0 11-9 21-21 21z m222 21c0-12-10-21-22-21s-21 9-21 21c0 12 9 21 21 21s22-9 22-21z" horiz-adv-x="1000" />

<glyph glyph-name="114" unicode="&#xe970;" d="M202 673c83 72 188 112 298 112 245 0 448-199 452-443 0-13 11-24 24-24 0 0 0 0 0 0 14 0 24 11 24 25-5 270-229 490-500 490-121 0-238-44-329-124-10-9-11-24-3-34 9-10 24-11 34-2z m773-379c-13 2-25-7-27-21-29-223-222-392-448-392-249 0-452 203-452 452 0 107 38 210 106 291 9 10 8 26-2 34-11 9-26 7-34-3-76-90-118-204-118-322 0-275 224-500 500-500 250 0 463 187 496 434 2 13-8 25-21 27z m-531 187c0-30 25-55 56-55s56 25 56 55c0 31-25 56-56 56s-56-25-56-56z m223-222c0-30 24-55 55-55s56 25 56 55c0 31-25 56-56 56s-55-25-55-56z m-408 0c0-30 25-55 56-55s56 25 56 55c0 31-25 56-56 56s-56-25-56-56z" horiz-adv-x="1000" />

<glyph glyph-name="115" unicode="&#xe971;" d="M397 517c-40 0-77-19-90-48-26-53 1-93 27-108 19-13 40-19 63-19 40 0 78 19 95 49 13 21 13 45 2 68-18 36-55 58-97 58z m53-100c-7-12-28-25-53-25-9 0-23 2-36 11l-3 2c-5 3-21 14-8 42 5 9 24 19 47 19 11 0 40-3 54-31 3-6 3-12-1-18z m172 74c-11-7-14-23-7-35 26-41 27-75 1-105-59-71-245-95-349-45l-2 1c0 0-50 21-65 68-12 34-4 75 24 122 30 51 82 85 143 92 75 9 152-22 212-85 9-10 25-11 35-1 9 10 9 26 0 36-70 74-162 111-252 100-77-9-142-51-180-116-35-61-45-116-29-165 22-66 85-94 94-98 44-21 99-31 155-31 101 0 204 33 251 89 40 47 41 106 3 166-7 12-23 15-34 7z m246-138c0 1-1 2-2 3-2 43-19 91-53 142-107 164-256 258-407 258-135 0-258-74-337-204-56-93-76-176-59-246-2-15-10-59-10-111 0-136 51-225 144-250 104-29 258-35 369-35 146 0 284 10 357 18 14 2 23 14 22 28-2 14-14 24-27 23-72-9-208-19-352-19-155 0-278 12-357 33-88 25-107 123-107 202 0 11 0 21 1 32 42-52 100-73 109-77 63-26 157-41 258-41 168 0 369 43 431 162 2 5 4 9 6 14 79-122 97-195 97-234 0-36-14-52-25-60-12-7-15-23-8-35 5-7 13-12 21-12 4 0 9 2 13 4 18 12 48 41 48 103 0 74-44 176-132 302z m-63-58c-52-100-241-136-388-136-94 0-184 15-240 39h-2c-1 1-85 28-113 105-21 60-5 135 49 223 70 114 177 180 295 180 135 0 268-86 367-236 45-70 56-128 32-175z" horiz-adv-x="1000" />

<glyph glyph-name="116" unicode="&#xe972;" d="M922 661l-2 3c-28 42-72 69-118 72-9 0-18 0-26-1-12 27-33 50-61 66-49 23-105 35-163 32h-3c-58-7-99-48-102-103-1-15 1-31 6-46 13-35 21-78 23-120 1-27 8-51 22-69-9-19-12-35-13-46 0-6 0-12 1-18-14-4-28-11-40-20-21-16-36-38-45-64-15 1-35-2-56-13-14 11-35 21-66 22-41 2-82 10-115 22s-67 9-94-9c-29-19-47-51-51-90v-4c-2-59 9-117 33-169 14-28 36-49 63-61-1-3-1-6-1-9-3-54 23-107 70-141l2-1c63-40 133-61 206-61 12 0 24 1 36 2h3c28 4 51 13 71 29 12-8 26-14 40-18 40-14 87-11 102-8 242 56 308 214 326 303 3 13-6 26-19 28-13 3-25-6-28-18-15-78-73-217-289-266-8-2-46-5-76 5-23 8-32 13-35 17l-77 422c5 18 15 33 29 44 12 9 26 14 42 17l-1-1 389-93c17-17 24-39 27-76 1-13 12-22 25-22 13 1 23 13 22 26-3 44-13 75-35 99 19 24 31 54 36 86l1 13c4 84-16 167-59 239z m-827-534c-21 44-30 95-28 146v2c2 24 12 44 29 54 14 10 33 11 51 5 38-14 84-23 131-26 12 0 22-3 29-6l-172-214c-17 8-31 22-40 39z m380-223c-14-12-29-19-51-22h-1c-74-7-147 11-210 51l-1 1c-34 24-53 61-51 99 1 5 2 10 3 16l190 235 2 1c19 14 36 16 47 14l72-395z m49 662c-3 47-12 94-26 134-3 9-4 18-4 28 2 31 25 53 59 57h2c49 3 97-7 138-27 19-10 33-26 40-44l-203-180c-4 9-6 20-6 32z m409-141l-1-10c-3-27-14-51-31-69l-367 88c-1 4-1 8-1 12 0 9 3 23 14 39h1l226 201c8 2 16 3 25 2 31-2 61-20 81-50l1-2c38-63 56-137 52-211z m-161-4l-8 47 36 6 9-46-37-7z m-482-465l-8 46 36 7 9-47-37-6z m446 256l37 7-9 47-36-7z m-87-266l-37-7-8 47 36 6 9-46z m234 252l-37-7-8 47 36 7 9-47z m-467-277l-37-6-9 46 37 7 9-47z m456 491l36 6-8 47-37-7z m-14 125l37 7-9 46-36-6z" horiz-adv-x="1000" />

<glyph glyph-name="117" unicode="&#xe973;" d="M712 434l-9 47 37 7 9-47-37-7z m-485-468l-8 47 36 7 9-47-37-7z m361-10l-37-7-9 47 37 7 9-47z m198 247l-8 47 37 7 8-47-37-7z m-470-278l-8 47 37 6 8-47-37-6z m496 500l37 6-8 47-37-6z m23 133l-8 47-37-7 9-47z m-394-107c12 0 21 10 21 22s-9 21-21 21c-11 0-21-9-21-21s10-22 21-22z m263-59c-1 2-1 3-2 5s-1 3-2 4c-15 31-24 71-24 113 0 45 10 95 24 124 4 7 3 15-1 22-4 6-11 10-19 10h-147c-15 93-95 163-190 163-106 0-192-87-192-195 0-106 84-193 189-195-4-15-9-29-15-42-1-1-2-2-2-4-1-2-2-4-2-5-17-37-34-76-34-123 0-118 89-216 203-227v-164h-122v-45h288v45h-121v164c15 2 30 5 44 9 92 29 159 116 159 218v0c0 47-18 86-34 123z m-343-19c4 9 8 17 11 25v0c13 34 21 75 21 116 0 48-9 71-18 98l-2 4c-4 12-17 18-29 13-11-4-17-17-13-29l2-4c9-25 15-42 15-82 0-9 0-17-1-26-1 0-2 0-4 0-81 0-148 67-148 150s67 150 148 150c71 0 130-50 145-118h-91c-12 0-22-10-22-22s10-23 22-23h251c-10-33-16-73-16-111 0-5 0-9 0-14h-133c-12 0-22-10-22-23 0-12 10-22 22-22h138c4-20 9-39 16-57v0c3-8 7-16 10-25 15-32 28-63 30-97l-23-4c-1 28-12 54-26 84-3 8-7 16-10 24-5 11-18 16-29 12-12-5-17-18-12-30 3-8 7-17 11-25 12-28 21-49 21-69 0-55-45-101-100-101-12 0-22-10-22-23s10-22 22-22c77 0 139 61 144 137l7-35 12 2c-19-80-91-140-176-140-99 0-180 82-180 183 0 38 14 70 29 104z" horiz-adv-x="1000" />

<glyph glyph-name="118" unicode="&#xe974;" d="M246 414v0l3-5c4-6 11-9 19-9 4 0 8 1 12 3 10 6 13 19 6 29 0 1-48 75-8 124 25 31 29 69 12 111-10 26-25 46-30 51-8 9-22 10-31 3-9-8-10-21-3-30 2-2 54-64 17-109-52-64-9-147 3-168z m579 3v0c4-7 11-10 19-10 4 0 8 1 11 3 11 7 13 20 7 29-5 8-47 77-8 124 24 31 29 69 12 111-11 30-30 51-30 52-8 8-22 10-31 2-9-7-11-20-3-29 1-1 54-64 17-110-59-73 3-168 6-172z m-111 3v0l2-3c4-6 11-10 18-10 4 0 8 1 12 3 5 3 8 8 9 14 2 5 1 11-3 15-4 8-46 77-8 124 25 31 29 69 13 111-11 27-26 46-31 52-7 8-22 10-31 2-9-7-10-20-2-29 5-7 52-66 17-110-55-66-7-152 4-169z m-574-11c4-6 11-9 18-9 4 0 8 1 12 3 10 6 13 19 7 29-1 1-49 75-9 124 25 31 29 69 13 111-11 27-27 48-31 52-7 8-22 9-31 2-9-8-10-21-2-30 2-2 53-64 17-109-60-74 3-169 6-173z m807-339h-35c-10 194-168 353-368 372v8c23 14 33 33 33 57 0 40-33 69-74 69h-1c-41 0-77-29-77-69 0-24 19-43 31-57v-8c-200-19-353-176-363-369h-30c-33 0-63-29-63-61v-20c0-31 30-59 63-59h879c33 0 58 28 58 59v20c0 30-23 55-53 58z m-480 441c11 16 19 23 35 23h1c17 0 31-11 31-27 0-12-8-20-20-24-5-2-9-6-11-11-3 5-9 9-15 11-11 4-21 15-21 27v1z m491-519c0-8-7-16-16-16h-879c-9 0-19 8-19 16v20c0 9 10 18 19 18h614c12 0 22 10 22 21 0 12-10 22-22 22h-541c12 182 171 332 364 332h5c194 0 353-150 364-332h-87c-12 0-21-10-21-22 0-11 9-21 21-21h160c9 0 16-8 16-17v-21z" horiz-adv-x="1000" />

<glyph glyph-name="119" unicode="&#xe975;" d="M926-21v284c0 55-41 100-94 108v152c0 20-16 36-36 36h-23v45c30 8 46 30 46 69 0 50-49 129-50 129l-19 31-18-31c-2-3-50-80-50-129 0-39 16-61 46-69v-45h-23c-20 0-35-16-35-36v-150h-89v150c0 20-16 36-35 36h-24v45c30 8 46 30 46 69 0 50-49 129-49 129l-19 31-19-31c-2-3-49-80-49-129 0-39 16-61 46-69v-45h-24c-19 0-35-16-35-36v-150h-88v150c0 20-16 36-36 36h-23v45c30 8 46 30 46 69 0 50-49 129-50 129l-18 31-19-31c-2-3-50-80-50-129 0-39 16-61 47-69v-45h-24c-20 0-35-16-35-36v-152c-54-8-95-53-95-108v-283c-23-14-38-39-38-68 0-43 35-79 79-79h770c44 0 79 36 79 79 0 29-15 54-38 67z m-199 694c0 15 8 41 23 72 16-31 24-57 24-72 0-28-8-28-24-28-14 0-23 0-23 28z m-13-158h73v-142h-73v142z m-238 158c0 15 9 41 24 72 15-31 24-57 24-72 0-28-9-28-24-28s-24 0-24 28z m-13-158h74v-142h-74v142z m-237 158c0 15 8 41 24 72 15-31 23-57 23-72 0-28-8-28-23-28s-24 0-24 28z m-13-158h73v-142h-73v142z m-28-186h631c36 0 66-30 66-66v-23c-3 3-6 7-9 11v1c0 1-1 2-2 3l-4 7-1-1c-7 10-19 20-36 21-18 0-34-12-47-38-4-7-10-16-11-17-3 1-14 10-22 24l-1 1c-1 1-1 2-2 3l-2 4h-1c-7 11-20 23-37 23-19 0-35-12-49-37-3-8-9-17-10-18-2 1-8 6-19 24-1 1-2 3-3 5l-3 5h-1c-7 10-20 21-37 21-24 0-38-21-47-37-3-8-10-17-11-18 0 0-6 3-19 24v1c-1 1-2 2-3 4l-3 5h-1c-7 10-19 21-36 21-25 0-39-20-48-37-3-7-8-14-11-17-4 3-12 12-22 28l-5 8h-1c-7 8-19 17-35 18-21 0-37-10-49-33-3-8-9-18-12-21-3 2-7 7-16 20-4 9-19 33-44 34-19 0-35-12-48-37-3-8-10-17-11-18-2 1-9 4-18 19l-5 9h-1l-18 25c8 28 33 49 64 49z m-66-122c13-15 27-24 42-24 2 0 3 0 4 1 33 3 49 42 49 42 3 6 6 10 7 11 0-1 1-2 2-3l5-7 4-9h1c11-18 21-34 49-35h1c33 0 51 47 51 47 5 8 8 10 8 10 0-1 3-3 5-8l5-10h2c13-18 32-39 50-39 2 0 3 0 4 1 33 3 49 42 49 42 3 6 6 10 7 11 1-1 1-2 2-3l5-7 4-9h2c16-23 32-35 48-35 2 0 3 0 4 0 33 3 49 43 49 43 3 6 6 9 7 11 0-1 1-2 2-3l4-7 5-10 2 1c15-22 32-35 48-35 1 0 3 0 4 1 33 3 49 42 48 42 4 7 6 10 8 11 2-2 4-5 6-9l5-10 2 1c14-19 33-36 51-36 2 0 3 0 4 0 33 3 49 43 49 43 3 6 5 9 7 11 0-1 1-2 2-3l4-7 5-10 2 1c12-17 25-29 39-33v-194h-763v216z m766-330h-770c-19 0-35 16-35 35s16 35 35 35h770c19 0 35-16 35-35s-16-35-35-35z" horiz-adv-x="1000" />

<glyph glyph-name="120" unicode="&#xe976;" d="M977 664h-954c-13 0-23-10-23-23v-615c0-13 10-24 23-24h954c13 0 23 11 23 24v615c0 13-10 23-23 23z m-23-46v-467h-908v467h908z m0-570h-908v57h908v-57z m-836 194c19 0 35-13 35-28 0-13 10-23 23-23h648c13 0 23 10 23 23 0 15 16 28 35 28 12 0 23 10 23 23v239c0 13-11 23-23 23-19 0-35 13-35 28 0 13-10 23-23 23h-648c-13 0-23-10-23-23 0-15-16-28-35-28-12 0-23-10-23-23v-239c0-13 11-23 23-23z m23 242c26 7 46 25 54 49h610c9-24 29-42 54-49v-199c-25-7-45-25-54-48h-610c-8 23-28 41-54 48v199z m363-208c60 0 110 49 110 109 0 59-50 108-110 108-61 0-110-49-110-108 0-60 49-109 110-109z m0 171c35 0 64-28 64-62 0-35-29-63-64-63-36 0-64 28-64 63s28 62 64 62z m206-85h29c12 0 23 10 23 23 0 12-11 22-23 22h-29c-13 0-23-10-23-22 0-13 10-23 23-23z m-448 0h28c13 0 23 10 23 23 0 12-10 22-23 22h-28c-13 0-23-10-23-22 0-13 10-23 23-23z" horiz-adv-x="1000" />

<glyph glyph-name="121" unicode="&#xe977;" d="M433 29c7 0 15-1 22-1v48c-6 0-13 0-19 0l-3-47z m-226 226c-5 14-8 29-10 43l-47-7c3-17 7-34 12-51l45 15z m-40 192l44-17c5 14 12 28 19 41l-40 24c-9-15-17-31-23-48z m-20-103l47-1c0 15 2 30 5 44l-47 9c-3-17-5-34-5-52z m141 194l-30 37c-14-12-26-24-38-37l36-31c10 11 21 22 32 31z m294 28c10-5 19-12 29-19l28 38c-11 8-23 16-35 23l-22-42z m-174 28c15 3 30 5 45 5l-1 47c-17 0-35-2-52-5l8-47z m133-10l15 45c-16 6-34 10-51 13l-8-47c15-2 30-6 44-11z m-186-488l-19-44c17-7 33-12 51-16l10 46c-14 3-29 8-42 14z m-106 80c-9 12-17 25-24 38l-42-22c8-16 18-31 29-45l37 29z m116 407l-16 44c-16-6-33-13-48-22l24-41c13 7 26 14 40 19z m-50-467c-13 8-25 18-36 28l-31-35c13-12 27-23 42-32l25 39z m359 439c-6 6-11 11-17 16l-31-36c5-4 10-8 14-13l34 33z m-87-51l-130-132-84 85-33-33 117-119 164 166z m30-508c15 20 39 40 62 59 35 30 69 57 69 92v12c0 62-50 112-112 112s-112-50-112-112h47c0 36 30 65 65 65 36 0 65-29 65-65v-12c0-12-30-37-52-55-25-21-53-43-71-70-42-62-41-118-41-121v-23h203v47h-153c4 18 12 44 30 71z m324 263h-48v-1l-152-264h152v-112h48v112h52v47h-52v218z m-48-218h-70l70 123v-123z m-846 294c0 224 182 406 406 406 206 0 376-153 403-351l-74 74-33-34 125-125 30 30h3c0 1 0 1 0 2l93 93-33 34-65-65c-31 220-220 389-449 389-250 0-453-203-453-453s203-454 453-454v47c-224 0-406 183-406 407z" horiz-adv-x="1000" />

<glyph glyph-name="122" unicode="&#xe978;" d="M971 412l-76 67c-2 2-5 4-7 6h67v45h-76c-1 0-3 0-4 0l-46 123c-9 24-35 42-60 42h-538c-26 0-51-19-58-44l-37-123c-5 1-10 2-15 2h-76v-45h68c-3-2-6-4-8-6l-76-67c-16-15-29-42-29-64v-192c0-4 0-7 1-11h-1v-79c0-52 42-94 94-94h42c52 0 94 42 94 94v39h540v-39c0-52 43-94 94-94h42c52 0 94 42 94 94v282c0 22-12 49-29 64z m-755 226c1 6 9 12 15 12h538c6 0 15-7 18-13l47-128c-1-1-3-3-4-5 0 0 0 0 0 0h-654l40 134z m-31-572c0-27-22-49-49-49h-42c-27 0-49 22-49 49v39c2 0 4 0 6 0h134v-39z m94 84v33c0 11 8 21 17 21h423c9 0 17-10 17-21v-33h-457z m627-133h-42c-27 0-49 22-49 49v39h134c2 0 4 0 6 0v-39c0-27-22-49-49-49z m49 139c0-3-3-6-6-6h-168v33c0 36-28 66-63 66h-422c-34 0-62-30-62-66v-33h-183c-3 0-6 3-6 6v192c0 9 7 24 14 30l76 68c8 6 25 13 35 13h660c10 0 27-7 35-13l76-68c7-6 14-21 14-30v-192z m-660 188h425v-45h-425v45z m-204-110h77v-45h-77v45z m751 0h76v-45h-76v45z m-751 110h134v-45h-134v45z m694 0h133v-45h-133v45z" horiz-adv-x="1000" />

</font>
</defs>
</svg>
