<svg xmlns="http://www.w3.org/2000/svg" viewBox="0 0 1000 95.833" preserveAspectRatio="none">
    <path class="elementor-shape-fill" d="M0,53.427c0,0,136.143,48.947,468.591,0c332.448-48.948,531.409,0,531.409,0v42.416H0V53.427z"/>
    <path class="elementor-shape-fill" opacity="0.8" d="M0,40.322c0,0,136.143,64.141,468.591,0c332.448-64.143,531.409,0,531.409,0
        v55.583H0V40.322z"/>
    <path class="elementor-shape-fill" opacity="0.3" d="M940,52.566c0.029,0.273-25.297-8.941-67.861-17.997
        c-42.597-9.363-102.43-18.564-172.134-25.383c-34.826-3.496-72.11-6.79-110.392-8.38c-19.138-0.773-38.51-1.066-57.933-0.544
        c-9.71,0.262-19.433,0.728-29.151,1.434c-9.72,0.706-19.435,1.652-29.133,2.861c-78.016,8.501-152.357,41.122-237.299,60.37
        c-47.986,9.813-93.136,11.301-132.703,10.657C63.672,74.691,29.533,71.667,0,66.669c0,10.058,0,20.116,0,30.174
        c205.872-0.002,411.745-0.001,617.617-0.001C728.893,87.852,832.706,69.1,940,52.566L940,52.566z"/>
</svg>