<svg xmlns="http://www.w3.org/2000/svg" viewBox="0 -60.5 1000 160.5" preserveAspectRatio="none">
    <path class="elementor-shape-fill" d="M1000,31.978c0,0-87.268,16.895-160.938,18.102c-73.671,1.206-165.945-22.427-278.646-17.572     c-86.698,3.735-95.027,19.699-233.854,22.274c-78.398,1.454-174.321-20.925-236.979-24.685C26.925,26.336,0,31.507,0,31.507V100     h1000V31.978z"/>
    <path class="elementor-shape-fill" opacity="0.2" d="M1000,74.977L0,74.514V43.91c0,0,138.491,66.357,443.358,0         C772.529-27.737,946.5,16.54,1000,35.576V74.977z"/>
    <path class="elementor-shape-fill" opacity="0.2" d="M0,63.555V26.575C51.124,9.926,212.225-27.19,512.915,33.393         c309.042,62.267,487.086,0,487.086,0v30.163L0,63.555L0,63.555z"/>
    <path class="elementor-shape-fill" opacity="0.2" d="M1001,51.404c-209.129-0.047-399-0.091-399-0.091s180.475-36.815,398.902-46.795         c0.033-0.001,0.064-0.003,0.098-0.005V51.404z"/>
    <path class="elementor-shape-fill" opacity="0.2" d="M2,66.779V2.261c84.986-0.204,175.726,7.696,265.484,29.521         C351.198,52.139,432.751,46.687,487,45.787V66.65L2,66.779z"/>
</svg>