<svg xmlns="http://www.w3.org/2000/svg" viewBox="0 0 1000 134.5" preserveAspectRatio="none">
    <path class="elementor-shape-fill" d="M1000,0v75.121c0,0-50.507-1.459-72.553-10.83c-22.046-9.375-56.883-23.937-95.688-23.106
    c-38.804,0.832-80.159,11.987-101.469,24.549c-21.311,12.561-48.106,34.209-77.285,23.825s-31.724-26.484-69.397-31.769
    c0,0-24.75,1.988-43.638,5.775c-22.378,4.488-76.625,31.644-110.406,15.162C395.783,62.25,360.54,27.997,273.943,49.127
    c0,0-38.806,14.224-56.78,23.826c-17.975,9.605-67.291,35.059-120.922,24.549C42.609,86.992,45.477,79.905,0,75.121V0H1000z"/>
</svg>