<svg xmlns="http://www.w3.org/2000/svg" viewBox="0 0 1000 137.5" preserveAspectRatio="none">
    <path class="elementor-shape-fill" opacity="0.8" d="M0.525,71.611c0.797-0.363,37.76-22.328,111.638-31.953
    c37.458-5.157,85.332-7.448,145.528-4.096c60.374,3.292,133.014,12.677,224.046,29.92c45.568,8.674,86.628,15.88,122.425,21.531
    c35.955,5.631,66.65,9.635,95.13,11.482c14.204,0.957,27.813,1.428,41.073,1.496c6.628,0.032,13.167-0.032,19.632-0.188
    c3.233-0.077,6.447-0.176,9.645-0.295c3.198-0.12,6.378-0.262,9.541-0.42c25.283-1.283,49.669-3.752,72.563-6.879
    c46.021-6.318,84.59-15.292,110.137-22.693c25.799-7.457,38.486-12.582,38.644-12.69c-0.076-20.528-0.265-43.856-1.38-56.825
    C666.271,0,333.398,0,0.525,0C0.525,23.871,0.525,47.74,0.525,71.611L0.525,71.611L0.525,71.611z"/>
    <path class="elementor-shape-fill" d="M0.167,55.168C0.134,54.967,34.221,41.49,110.228,35.847c38.004-2.869,86.338-4.063,146.079-0.143
    c59.706,3.72,130.818,12.559,213.587,25.108c82.68,12.308,156.913,17.789,222.194,20.299c16.313,0.586,32.053,0.939,47.202,1.082
    c7.575,0.07,15.002,0.085,22.279,0.052c7.276-0.034,14.402-0.118,21.378-0.252c27.896-0.528,53.345-1.833,76.188-3.675
    c91.429-7.227,140.87-23.961,140.863-23.942c0-18.125,0-36.251,0-54.376C667.231,0.994,334.432,1.909,0.51,0
    C-0.156,19.665-0.053,37.551,0.167,55.168L0.167,55.168z"/>
</svg>